<svg width="745" height="683" viewBox="0 0 745 683" fill="none" xmlns="http://www.w3.org/2000/svg">
<path d="M2.97337 640.225C2.98875 649.604 10.5963 657.201 19.9748 657.203L279.003 657.259L500 491.5L660 386.5L576.849 33.2297C574.923 25.0476 567.308 19.4993 558.93 20.1749L17.6842 63.8206C8.8454 64.5334 2.04118 71.9207 2.05573 80.7884L2.97337 640.225Z" fill="#6C4343"/>
<path d="M58.6971 664.89C59.5958 674.224 67.883 681.07 77.2189 680.191L315.301 657.762L535.219 525.466L677.987 462.768L636.156 21.7737C635.268 12.4175 626.957 5.55435 617.602 6.45222L17.9223 64.0071C8.57636 64.9041 1.72944 73.2073 2.62924 82.553L58.6971 664.89Z" fill="#F3A1A1"/>
<path d="M59.4832 664.784C60.369 674.13 68.6629 680.991 78.0092 680.109L335.534 655.82L557.471 517.294L293.665 310.297L3.90629 78.4193L59.4832 664.784Z" fill="#F5B9B9"/>
<path d="M678.074 462.738C543.139 525.949 349.115 648.841 335.534 655.82C354.008 641.277 452.15 433.761 485.158 363.25C490.336 352.189 505.146 349.972 513.694 358.699C549.564 395.327 631.397 472.18 678.074 462.738Z" fill="#E25868"/>
</svg>
