<svg xmlns="http://www.w3.org/2000/svg" viewBox="0 0 155.31 105.28"><defs><style>.cls-1{fill:#3c3c4a;}.cls-2{fill:#2f2330;}.cls-3{fill:#4b764d;}.cls-4{fill:#d0b759;}.cls-5{fill:#a37639;}.cls-6{fill:#fdeedf;}.cls-7{fill:#eacfc1;}.cls-8{fill:#debdb2;}.cls-9{fill:#d0d3e9;}.cls-10{fill:#c0b3cc;}.cls-11{opacity:0.27;}.cls-12{fill:none;stroke:#d60000;stroke-linecap:round;stroke-linejoin:round;stroke-width:3px;}</style></defs><title>Luminosidade (PHOTORESIST) compose SVG</title><g id="Imagem_7" data-name="Imagem 7"><g id="Forma_4" data-name="Forma 4"><path class="cls-1" d="M126.74,100.74s-9.61,8.55-9.88,8.38,2.66,14.11,4.1,14.91,3.91-.19,3.91-.19,5.54-3,6.71-3.91a3.25,3.25,0,0,0,1.12-2.42l-.19-14.91ZM184.87,76l-14,.38-1.12,9.31s1.55,10.69,3.35,11.56a5.39,5.39,0,0,0,3.92,0s5-2.52,6.33-3.36a4.43,4.43,0,0,0,1.68-2.79Z" transform="translate(-35.25 -19.06)"/></g><g id="Forma_2" data-name="Forma 2"><path class="cls-2" d="M58.73,64c-.23.08-19,1.3-19,1.3v15.1a5.32,5.32,0,0,0,2.61,4.1c3.64,1.9,76.58,38.57,76.58,38.57s2.88,1.53,3.36,1.11c-.09-2.15-.19-18.63-.19-18.63S59,64,58.73,64ZM158,81l-3.17,7.08s14,7.16,16.59,8.38c2.37,1.46,3.35.93,3.35.93V81.73Z" transform="translate(-35.25 -19.06)"/></g><g id="Forma_12" data-name="Forma 12"><path class="cls-3" d="M189.29,62.39a6.93,6.93,0,0,0-1.81-1S106.6,20.79,105.12,20.06c-2.84-2-4.84-.38-4.84-.38S39.9,50.18,39,50.61A7.3,7.3,0,0,0,36.57,52c-.49.15-.76,1-.85,1.52a1.13,1.13,0,0,0,.14,1.07l0,.22,0-.11a1.63,1.63,0,0,0,.61.38l2.23,1.3,4.66,7.27s66,33.84,66.52,33.72,17,2.8,17,2.8,53.36-27.39,53.67-27.39,8.94-6.84,9.5-8.57c0,0,0-.08,0-.11l.14.24A2,2,0,0,0,189.29,62.39Z" transform="translate(-35.25 -19.06)"/></g><g id="Forma_14" data-name="Forma 14"><path class="cls-4" d="M190.27,63.66l-.1.05v-.09h0l-.07-.08-.05,0h0v0l-.25.3v0l-1.18.66s-60.75,31-62.79,31.86a6.69,6.69,0,0,1-3.92.93l-2.42,4.29s-1,4,.56,4.66a6.7,6.7,0,0,0,1.59.41l.27.33s.53.48,2.59-.18h.21s59.09-29.47,62.42-31.11c3.17-1.77,2.72-2.48,3.16-3.54C190.9,70.88,190.27,63.66,190.27,63.66Z" transform="translate(-35.25 -19.06)"/></g><g id="Forma_6" data-name="Forma 6"><path class="cls-5" d="M122.08,97.38c0-.06-1.13.22-4.29-1.49-2-1-69.4-34.78-78.83-39.51l-3.34-2-.18,1.31s-.21,4.46-.19,6.14c-.14,2.66,2.61,3.92,2.61,3.92s79.2,39.91,80.68,40.62a9.36,9.36,0,0,0,3.54.93S122.11,97.67,122.08,97.38Z" transform="translate(-35.25 -19.06)"/></g></g><g id="Camada_2" data-name="Camada 2"><g id="Forma_103" data-name="Forma 103"><path class="cls-6" d="M149.3,27.43c-4.66-2.89-11.8-6.48-14.76-7s-13-1.71-17.27-.91-4.28.45-9.77,3C104.44,24.11,78.65,37,78.65,37s-4.72,1.42-5.45,5c0,0-.63.9-.46,4.31-.17,4.1,0,16.81,0,16.81s-.55,6.57,8.41,11.59c4.76,2.47,6.26,3.27,12,4.32s9.83,1.6,15,1.13a29.84,29.84,0,0,0,6.4-1.42l.19.06.73-.36a63.46,63.46,0,0,0,9-4c2.61-1.4,10.27-5.55,15.78-8.54l8.3-4.18,0-.08c2.27-1.21,5.47-3.58,5.7-7.42.36-6,.23-13.17.23-13.17S155.28,31.54,149.3,27.43Z" transform="translate(-35.25 -19.06)"/></g><g id="Forma_113" data-name="Forma 113"><path class="cls-7" d="M151.8,41.28,123.18,56.51,122,74.68l1.37.46,24.76-13s2.8-1.43,3.63-2.73,1.14-5,1.14-5V44.24Z" transform="translate(-35.25 -19.06)"/></g><g id="Forma_104" data-name="Forma 104"><path class="cls-8" d="M154.08,35.38c-.06,1-.29,4-1.59,5.22a7.26,7.26,0,0,1-1,.78l.18,18.23a11.78,11.78,0,0,0,2.58-4.24c.45-2.36.46-15,.46-15A20.66,20.66,0,0,0,154.08,35.38ZM105.46,61.5c-2.3.1-8.75,0-11.36-.9-1.37-.38-7.74-1.43-12.73-5-1.18-.76-5.88-3.6-8-7.73a15.88,15.88,0,0,1-.68-4.54V64.46S74,71.75,82.28,75.59c1.81.7,7.62,3.44,11.82,3.86s7,1.69,13.17.91c1.34.06,4.56.23,12-3.18a27.38,27.38,0,0,0,4.09-2l.22-18.86s-3.41,1.74-8.4,3.63A59.21,59.21,0,0,1,105.46,61.5Z" transform="translate(-35.25 -19.06)"/></g><g id="Elipse_7" data-name="Elipse 7"><path class="cls-9" d="M98.41,42.87c-3.51,0-6.29,1.48-6.29,3.3a2.15,2.15,0,0,0,.3,1,2,2,0,0,0-.18.79c0,1.82,2.56,3.1,6.08,3.1s6.31-1.28,6.31-3.1a2,2,0,0,0-.17-.75,2.11,2.11,0,0,0,.32-1.06C104.78,44.35,101.93,42.87,98.41,42.87ZM134.94,30c0-1.82-2.85-3.29-6.37-3.29s-6.36,1.47-6.36,3.29a1.9,1.9,0,0,0,.31,1,2,2,0,0,0-.25.95c0,1.82,2.68,3.15,6.19,3.15s6.36-1.47,6.36-3.29a1.72,1.72,0,0,0-.2-.8A1.94,1.94,0,0,0,134.94,30Z" transform="translate(-35.25 -19.06)"/></g><g id="Forma_262" data-name="Forma 262"><path class="cls-10" d="M135,29.75s0,3.07-6.14,3.51c-.77-.07-5.35.43-6.6-3.22l.06,2.34s.68,2.49,5.32,2.75c.92-.05,6.06.22,7.36-2.87C135,31.63,135,29.75,135,29.75Z" transform="translate(-35.25 -19.06)"/></g><g id="Forma_263" data-name="Forma 263"><path class="cls-10" d="M98.2,49.56c-.56,0-6-.25-6.08-3.45V48s-.22,3,5.91,3.27c.39,0,4.25.18,6.31-2.22a1.79,1.79,0,0,0,.4-.82c0-.26.06-2,.06-2S104.56,49.9,98.2,49.56Z" transform="translate(-35.25 -19.06)"/></g><g id="Forma_112" data-name="Forma 112" class="cls-11"><path class="cls-10" d="M98.64,49.46s-6,.3-6.59-3.18v2.27s1.67,3.21,6.82,2.73c5.26-.08,5.91-3.18,5.91-3.18V46.05C104.75,49.55,98.64,49.46,98.64,49.46Zm30.19-16.21s-6,.3-6.59-3.18l.09,2.6s1.57,2.87,6.72,2.39c5.26-.08,5.9-3,5.9-3V29.84C134.93,33.33,128.83,33.25,128.83,33.25Z" transform="translate(-35.25 -19.06)"/></g><polyline class="cls-12" points="105.68 24.25 89.72 32.2 83.89 29.55 95.39 23.61 89.03 20.51 79.68 25.25 74.48 22.56 83.77 17.88 77.69 14.88 68.29 19.58 62.99 16.89 78.7 9.12 72.38 5.79 55.84 14.26"/></g></svg>
