<svg xmlns="http://www.w3.org/2000/svg" viewBox="0 0 124.02 127.3"><defs><style>.cls-1{fill:#3c3c4a;}.cls-2{fill:#2f2330;}.cls-3{fill:#4b764d;}.cls-4{fill:#d0b759;}.cls-5{fill:#a37639;}.cls-6{fill:#d2b960;}.cls-7{fill:#2b2633;}.cls-8{fill:#b9964e;}.cls-9{fill:#2d2734;}.cls-10{fill:#bf948e;}.cls-11{fill:#fcebd9;}.cls-12{fill:#ead0c2;}.cls-13{fill:#d4b2a9;}.cls-14{fill:#3b3b4e;}.cls-15{fill:#241f2d;}.cls-16{fill:#353544;}.cls-17{opacity:0.12;}</style></defs><title>Potenciometro compose SVG</title><g id="Imagem_7" data-name="Imagem 7"><g id="Forma_4" data-name="Forma 4"><g id="_Group_" data-name="&lt;Group&gt;"><g id="_Compound_Path_" data-name="&lt;Compound Path&gt;"><path class="cls-1" d="M129.77,110.3s-7.67,6.84-7.88,6.7,2.12,11.27,3.27,11.9,3.13-.15,3.13-.15,4.42-2.35,5.35-3.12a2.58,2.58,0,0,0,.9-1.93l-.15-11.91ZM176.2,90.51l-11.16.3-.89,7.44s1.23,8.53,2.67,9.23a4.33,4.33,0,0,0,3.13,0s4-2,5.06-2.68a3.55,3.55,0,0,0,1.34-2.23Z" transform="translate(-56.71 -1.86)"/></g></g></g><g id="Forma_2" data-name="Forma 2"><g id="_Group_2" data-name="&lt;Group&gt;"><g id="_Compound_Path_2" data-name="&lt;Compound Path&gt;"><path class="cls-2" d="M75.46,81c-.18.06-15.17,1-15.17,1V94.09a4.23,4.23,0,0,0,2.08,3.27c2.91,1.52,61.15,30.8,61.15,30.8s2.3,1.22,2.68.89c-.07-1.72-.15-14.88-.15-14.88S75.64,80.93,75.46,81Zm79.31,13.54-2.53,5.66s11.22,5.71,13.24,6.69c1.9,1.17,2.68.75,2.68.75V95.13Z" transform="translate(-56.71 -1.86)"/></g></g></g><g id="Forma_12" data-name="Forma 12"><g id="_Group_3" data-name="&lt;Group&gt;"><g id="_Path_" data-name="&lt;Path&gt;"><path class="cls-3" d="M179.7,79.67a5.42,5.42,0,0,0-1.42-.76s-64.59-32.45-65.77-33c-2.27-1.61-3.87-.3-3.87-.3S60.43,69.93,59.69,70.28a5.49,5.49,0,0,0-1.92,1.12c-.43.12-.64.89-.7,1.32a.88.88,0,0,0,.13.74l0,.18,0-.1a1.32,1.32,0,0,0,.48.31l1.78,1,3.72,5.8s52.7,27,53.12,26.94,13.54,2.23,13.54,2.23S172.53,88,172.78,88s7.14-5.45,7.58-6.84c0,0,0-.07,0-.1l.12.21A1.61,1.61,0,0,0,179.7,79.67Z" transform="translate(-56.71 -1.86)"/></g></g></g><g id="Forma_14" data-name="Forma 14"><g id="_Group_4" data-name="&lt;Group&gt;"><g id="_Path_2" data-name="&lt;Path&gt;"><path class="cls-4" d="M180.51,80.69l-.08,0v-.08h0l0-.07,0,0h0v0l-.2.24v0l-1,.53S130.66,106.18,129,106.88a5.3,5.3,0,0,1-3.12.75L124,111.05s-.79,3.16.45,3.72a4.93,4.93,0,0,0,1.26.33l.23.26s.41.38,2.06-.14h.17S175.33,91.68,178,90.37s2.18-2,2.53-2.83C181,86.46,180.51,80.69,180.51,80.69Z" transform="translate(-56.71 -1.86)"/></g></g></g><g id="Forma_6" data-name="Forma 6"><g id="_Group_5" data-name="&lt;Group&gt;"><g id="_Path_3" data-name="&lt;Path&gt;"><path class="cls-5" d="M126.05,107.63a7.39,7.39,0,0,1-3.42-1.19c-1.62-.8-55.43-27.78-62.95-31.55L57,73.25l-.15,1s-.16,3.56-.15,4.91c-.11,2.12,2.09,3.12,2.09,3.12s63.25,31.88,64.43,32.44a7.33,7.33,0,0,0,2.82.74S126.08,107.86,126.05,107.63Z" transform="translate(-56.71 -1.86)"/></g></g></g></g><g id="Imagem_65" data-name="Imagem 65"><g id="Imagem_65-2" data-name="Imagem 65"><g id="Elipse_14" data-name="Elipse 14"><g id="_Group_6" data-name="&lt;Group&gt;"><g id="_Compound_Path_3" data-name="&lt;Compound Path&gt;"><path class="cls-6" d="M106.62,89.26c-2.3,0-4.16,1.15-4.16,2.56s1.86,2.56,4.16,2.56,4.16-1.14,4.16-2.56S108.92,89.26,106.62,89.26Zm-8.29-3.91c-2.3,0-4.16,1.14-4.16,2.56s1.86,2.56,4.16,2.56,4.16-1.15,4.16-2.56S100.63,85.35,98.33,85.35Z" transform="translate(-56.71 -1.86)"/></g></g></g><g id="Elipse_15" data-name="Elipse 15"><g id="_Group_7" data-name="&lt;Group&gt;"><g id="_Compound_Path_4" data-name="&lt;Compound Path&gt;"><path class="cls-7" d="M98.36,86.47c-1.45,0-2.64.64-2.64,1.44s1.19,1.44,2.64,1.44S101,88.7,101,87.91,99.82,86.47,98.36,86.47Zm8.17,3.81c-1.46,0-2.64.64-2.64,1.44s1.18,1.44,2.64,1.44,2.64-.65,2.64-1.44S108,90.28,106.53,90.28Z" transform="translate(-56.71 -1.86)"/></g></g></g><g id="Forma_241" data-name="Forma 241"><g id="_Group_8" data-name="&lt;Group&gt;"><g id="_Path_4" data-name="&lt;Path&gt;"><path class="cls-6" d="M94.8,83.26c-1.45-.62-3.2-1.6-3.2-1.6a1.86,1.86,0,0,0-2.08-.16c-1.09.66-3.52,1.92-3.52,1.92s-1,.51,0,1.12,3.36,1.76,3.36,1.76,1.23.73,2.08.16S95,84.54,95,84.54,96.25,83.88,94.8,83.26Z" transform="translate(-56.71 -1.86)"/></g></g></g><g id="Retângulo_Arredondado_1" data-name="Retângulo Arredondado 1"><g id="_Group_9" data-name="&lt;Group&gt;"><g id="_Path_5" data-name="&lt;Path&gt;"><path class="cls-6" d="M148.94,80.69l-21-10.9a1.61,1.61,0,0,0-2.16.69L113.85,76.6a1.6,1.6,0,0,0,.68,2.16s16.59,8,18.86,9.52,3.84.8,3.84.8l12.39-6.23A1.6,1.6,0,0,0,148.94,80.69Z" transform="translate(-56.71 -1.86)"/></g></g></g><g id="Elipse_16" data-name="Elipse 16"><g id="_Group_10" data-name="&lt;Group&gt;"><g id="_Path_6" data-name="&lt;Path&gt;"><path class="cls-7" d="M90.56,82.38c-1.49,0-2.71.7-2.73,1.58s1.19,1.58,2.68,1.58,2.71-.71,2.73-1.58S92.06,82.38,90.56,82.38Z" transform="translate(-56.71 -1.86)"/></g></g></g><g id="Forma_231" data-name="Forma 231"><g id="_Group_11" data-name="&lt;Group&gt;"><g id="_Path_7" data-name="&lt;Path&gt;"><polygon class="cls-8" points="75.4 69.95 57.48 76.67 75.71 85.87 90.62 78.02 75.4 69.95"/></g></g></g><g id="Forma_239" data-name="Forma 239"><g id="_Group_12" data-name="&lt;Group&gt;"><g id="_Path_8" data-name="&lt;Path&gt;"><path class="cls-9" d="M151.79,56.6c-1-.88-4.39-5.24-5.92-4.64S132.2,59.72,132,60.28s-2.71,4.57-2.88,5.12,5.17,5.21,5.6,5.12,11.27-5.15,11.68-5.44S152.83,57.49,151.79,56.6Z" transform="translate(-56.71 -1.86)"/></g></g></g><g id="Forma_238" data-name="Forma 238"><g id="_Group_13" data-name="&lt;Group&gt;"><g id="_Path_9" data-name="&lt;Path&gt;"><path class="cls-10" d="M146.67,56.28c0,.87-1.6,2.56-1.6,2.56s2.87,1.83,3.52,2.08C149,58.25,146.67,56.28,146.67,56.28Z" transform="translate(-56.71 -1.86)"/></g></g></g><g id="Forma_220" data-name="Forma 220"><g id="_Group_14" data-name="&lt;Group&gt;"><g id="_Path_10" data-name="&lt;Path&gt;"><path class="cls-11" d="M157.39,48.29,154.83,47,126.35,32.13,99.47,45.57S91,49.93,90,50.53c-2.17,1.25-1.76,2.23-1.76,2.23l.8,3.52,8.48,3.2,22.08,10.24,2.88-.16,8.41-4.77a5.6,5.6,0,0,1,.55-1.15c.12-.07,3.59-1.46,5.16-2.09l10.68-6.07s9.9-2.08,10.08-2.4a29.72,29.72,0,0,0,.8-3A1.51,1.51,0,0,0,157.39,48.29Z" transform="translate(-56.71 -1.86)"/></g></g></g><g id="Forma_230" data-name="Forma 230"><g id="_Group_15" data-name="&lt;Group&gt;"><g id="_Compound_Path_5" data-name="&lt;Compound Path&gt;"><path class="cls-12" d="M160.11,52.44a3,3,0,0,0,0-.34V52h0a2.4,2.4,0,0,0-1.75-2.24L120.43,68.6a3.73,3.73,0,0,1,.95.46l-.31.18V81.88l.16,1.92,1.44,1,3.2-1.44.48,1.44a6.46,6.46,0,0,0,.64,4c1,1.68,2.24,1,2.24,1s1.47-.88,2.24-1.28a2,2,0,0,0,1-1.12v-2.4A2,2,0,0,1,134,83c1.69-.5.64,1.12.64,1.12L136.11,86l7.36-3.52a2.1,2.1,0,0,0,1.12-2.08,10.92,10.92,0,0,1,0-1.6s.08-1.32.8-1.44c.62-.27,1.28-.48,1.28-.48s.27,1.45.48,1.44,1.12,1.6,1.12,1.6l2.06-1h0l1.15-.53s1.16-.45,1-2.82a32.44,32.44,0,0,1-.16-3.68,3.33,3.33,0,0,1,2.4-3c1.21-.56,2.72-1.44,2.72-1.44s2.88-1,2.72-3.36c-.09-1.42,0-9.59,0-11.67ZM147.79,59.8v0l-2.39.14-11.84,5.76-.76.84a3.15,3.15,0,0,0-1-2.43l-.06-.06L132,64l14.88-7.36h0A3.22,3.22,0,0,1,147.79,59.8Z" transform="translate(-56.71 -1.86)"/></g></g></g><g id="Forma_227" data-name="Forma 227"><g id="_Group_16" data-name="&lt;Group&gt;"><g id="_Compound_Path_6" data-name="&lt;Compound Path&gt;"><path class="cls-13" d="M122.19,83c-.06-1.22-.36-11.86-.36-11.86l-.35-1.5-2-1.36L88.27,52.44s-.73,1,.64,2.08,4,5.6,4,5.6,10.1,5,10.4,5.12L119,71.8l1.6,11.52s.16,2.08,2.56,1.28C122.74,84.37,121.91,84.39,122.19,83Zm6.56,6.88c-.25,0-.48-.09-.69-.14A1.21,1.21,0,0,0,128.75,89.88Zm-1.28-1.6c.07-1.79.32-5.92.32-5.92l-1.92,1-.16,4.32s-.48,1.42,2.35,2.1C127.74,89.56,127.44,89.16,127.47,88.28Zm6.72-5.44a.59.59,0,0,0-.45.21l0,1.87a15.6,15.6,0,0,0,2.4,1.12L136,83.8S135.63,82.13,134.19,82.84Zm12.48-6.08a4.77,4.77,0,0,0-.8.32l.16,1.76L148.27,80V78S148.09,76.51,146.67,76.76Zm-1.28-18.24s-12.16,6.45-13,6.8a6.63,6.63,0,0,1,.35,2.29l14.86-7.81Z" transform="translate(-56.71 -1.86)"/></g></g></g><g id="Elipse_10" data-name="Elipse 10"><g id="_Group_17" data-name="&lt;Group&gt;"><g id="_Path_11" data-name="&lt;Path&gt;"><ellipse class="cls-9" cx="66.52" cy="47.23" rx="12.72" ry="7.36"/></g></g></g><g id="Forma_221" data-name="Forma 221"><g id="_Group_18" data-name="&lt;Group&gt;"><g id="_Path_12" data-name="&lt;Path&gt;"><polygon class="cls-9" points="53.73 6.28 53.8 47.39 60.2 51.07 79.24 47.23 79.24 6.11 53.73 6.28"/></g></g></g><g id="Elipse_10_1" data-name="Elipse 10 1"><g id="_Group_19" data-name="&lt;Group&gt;"><g id="_Path_13" data-name="&lt;Path&gt;"><path class="cls-14" d="M123.2,1.86c-7.12,0-12.82,2.74-12.75,6.19a3.09,3.09,0,0,0,.25,1.18.07.07,0,0,1,0,0l.16.28a3.18,3.18,0,0,0,.16.32l0,0a6,6,0,0,0,1.56,1.57l.07,0c.21.14.42.29.65.42s.49.27.75.4l.06,0a21.1,21.1,0,0,0,9,1.81C130.33,14.2,136,11.44,136,8S130.33,1.86,123.2,1.86Z" transform="translate(-56.71 -1.86)"/></g></g></g><g id="Elipse_11" data-name="Elipse 11"><g id="_Group_20" data-name="&lt;Group&gt;"><g id="_Path_14" data-name="&lt;Path&gt;"><path class="cls-15" d="M124,63.22a1.87,1.87,0,0,0,.93-1.48c0-1.29-1.8-2.32-4-2.32s-4,1-4,2.32a1.84,1.84,0,0,0,.9,1.46,1.87,1.87,0,0,0-.93,1.48c0,1.29,1.79,2.32,4,2.32s4-1,4-2.32A1.86,1.86,0,0,0,124,63.22Z" transform="translate(-56.71 -1.86)"/></g></g></g><g id="Forma_232" data-name="Forma 232"><g id="_Group_21" data-name="&lt;Group&gt;"><g id="_Path_15" data-name="&lt;Path&gt;"><path class="cls-15" d="M121.57,61.08c-.12-.13-4.66.64-4.66.64v3.21l3.21,1.12,4.82-1.28v-3S121.68,61.2,121.57,61.08Z" transform="translate(-56.71 -1.86)"/></g></g></g><g id="Elipse_12" data-name="Elipse 12"><g id="_Group_22" data-name="&lt;Group&gt;"><g id="_Path_16" data-name="&lt;Path&gt;"><path class="cls-16" d="M120.92,59.42c-2.2,0-4,.89-4,2s1.79,2,4,2,4-.89,4-2S123.13,59.42,120.92,59.42Z" transform="translate(-56.71 -1.86)"/></g></g></g><g id="Forma_237" data-name="Forma 237"><g id="_Group_23" data-name="&lt;Group&gt;"><g id="_Path_17" data-name="&lt;Path&gt;"><path class="cls-9" d="M120.59,83V80.92s-.17-3.74-.16-4.64c-.05-6-1.44-6.4-1.44-6.4l-6.4-.64-.58,0c1.12-1,2.18-1.89,2.18-1.89L93.71,57.08s-.24,2-.33,3.51l-.95-1s-5.88-3.79-7-3.84-1.44,3-1.44,3-.12,4.87-.32,9.12a6.31,6.31,0,0,0,3.84,6.24s24,12.16,25.6,13c2.86,1.6,4.64.48,4.64.48s.54-.27,1.44-.8C120.85,85.89,120.59,83,120.59,83Z" transform="translate(-56.71 -1.86)"/></g></g></g><g id="Forma_259" data-name="Forma 259"><g id="_Group_24" data-name="&lt;Group&gt;"><g id="_Path_18" data-name="&lt;Path&gt;"><path class="cls-14" d="M115.3,67.79a5.76,5.76,0,0,0-2.21-.71c-.64.38-1.53,0-3.64,2-1.19-.61-11.75-6-13-6.65a11.42,11.42,0,0,0-2.65-5.29c-5.34-2.55-5.38-3.27-5.38-3.27a12.31,12.31,0,0,0-2.92,1.59c-1.36.89,1,2,2.12,2.65,3.16,1.5,3.17,2.16,3.71,3.27a6.13,6.13,0,0,0,2.91,4.14s12.6,6,13.59,6.44a4.67,4.67,0,0,1,1.31-2.54l-.08.07a25.43,25.43,0,0,1,7.06,2.92,14.28,14.28,0,0,0,3.44-1.86S119.09,69.06,115.3,67.79Z" transform="translate(-56.71 -1.86)"/></g></g></g><g id="Forma_236" data-name="Forma 236" class="cls-17"><g id="_Group_25" data-name="&lt;Group&gt;"><g id="_Compound_Path_7" data-name="&lt;Compound Path&gt;"><path class="cls-14" d="M109.55,69.08,107.31,68s-10-5-10.88-5.44c-1.34-5.1-2.88-5.6-2.88-5.6s-3.32-1.66-4-1.92a4.69,4.69,0,0,1-1.28-1.12,5.83,5.83,0,0,0-2.88,1.44c-1,.91.64,1.92.64,1.92s1.69.85,2.72,1.44a4.42,4.42,0,0,1,2.72,2.88,4.88,4.88,0,0,0,2.4,3.68s12.75,6.17,13.92,6.72a5,5,0,0,1,1.12-2.4l.3-.17a.53.53,0,0,0-.3.17A2.08,2.08,0,0,1,109.55,69.08Zm10.08,1.28-.19,0a3.68,3.68,0,0,0-1.57-1.26s-1.65-1-2.72-1.44a2.28,2.28,0,0,0-2.72-.16l-2.74,1.62-.14,0,.1,0-.44.26a2.88,2.88,0,0,1,1.56.29l1.87.91.43.25L116,72.28l.1,0,.06,0,.25-.13.55-.19,2.62-1.44,0-.08Z" transform="translate(-56.71 -1.86)"/></g></g></g><g id="Elipse_13" data-name="Elipse 13"><g id="_Group_26" data-name="&lt;Group&gt;"><g id="_Path_19" data-name="&lt;Path&gt;"><path class="cls-10" d="M121.28,68.89c-.5-.4-1-.42-1.1,0a1.81,1.81,0,0,0,.92,1.54c.51.32.9.19.92-.23A1.84,1.84,0,0,0,121.28,68.89Z" transform="translate(-56.71 -1.86)"/></g></g></g><g id="Forma_240" data-name="Forma 240"><g id="_Group_27" data-name="&lt;Group&gt;"><g id="_Compound_Path_8" data-name="&lt;Compound Path&gt;"><path class="cls-12" d="M90.35,70.84c-2-.11-1.92,2.56-1.92,2.56s0,5.58,0,7.2a2.12,2.12,0,0,0,1,2.08s0,.51,0,1.44c.81,1,2.24.16,2.24.16l.16-1.44.48-1L92.59,74c1-.54.48-1.92.48-1.92Zm7.94,4c-2.05-.11-1.91,2.56-1.91,2.56s0,5.58,0,7.2a2.12,2.12,0,0,0,1,2.08s0,.51,0,1.44c.81,1,2.24.16,2.24.16l.16-1.44.48-1,.32-7.84c1-.54.48-1.92.48-1.92Zm10.86,5.44L106.43,79c-2.06-.11-1.92,2.56-1.92,2.56s0,5.58,0,7.2a2.12,2.12,0,0,0,1,2.08s0,.51,0,1.44c.8,1,2.24.16,2.24.16l.16-1.44.48-1s.27-6.86.32-7.84C109.7,81.67,109.15,80.29,109.15,80.29Z" transform="translate(-56.71 -1.86)"/></g></g></g></g></g></svg>