<svg width="1000" height="1000" viewBox="0 0 1000 1000" fill="none" xmlns="http://www.w3.org/2000/svg">
<path fill-rule="evenodd" clip-rule="evenodd" d="M502.211 148C766.166 148 970.135 266.233 970.135 480.512C986.489 744.552 770.564 916.012 506.609 916.012C242.654 916.012 26.544 755.353 32.088 480.965C32.088 266.686 238.255 148 502.211 148Z" fill="#222232"/>
<path fill-rule="evenodd" clip-rule="evenodd" d="M501.516 96.563C764.941 96.563 968.5 263.981 968.5 471.075C968.5 678.169 769.33 838.827 505.905 838.827C242.48 838.827 31.9 678.641 31.9 471.547C31.9 264.453 238.091 96.563 501.516 96.563Z" fill="#39394E"/>
<path fill-rule="evenodd" clip-rule="evenodd" d="M499.979 131.682C720.679 131.682 899.59 275.66 899.709 430.282C916.221 646.314 720.678 774.842 499.979 774.853C279.28 774.864 92.973 656.937 100.366 437.681C100.366 260.075 279.28 131.682 499.979 131.682Z" fill="#F0CFC1"/>
<path fill-rule="evenodd" clip-rule="evenodd" d="M499.979 131.682C720.679 131.682 899.59 263.474 899.59 426.047C899.59 588.62 720.678 720.412 499.979 720.412C279.28 720.412 100.368 588.62 100.368 426.047C100.368 263.474 279.28 131.682 499.979 131.682Z" fill="#FAEBD8"/>
<path fill-rule="evenodd" clip-rule="evenodd" d="M250.315 317.01H333.178V537.77H250.315C214.795 537.77 186 505.352 186 465.361V389.421C186 349.43 214.795 317.01 250.315 317.01ZM671.482 317.01H754.344C789.866 317.01 818.66 349.43 818.66 389.421V465.361C818.66 505.352 789.866 537.77 754.344 537.77H671.482V317.01ZM509.319 317.01H656.499V537.77H509.319V317.01ZM346.733 317.01H493.91V537.77H346.733V317.01Z" fill="#1D1D2F"/>
<path fill-rule="evenodd" clip-rule="evenodd" d="M249.917 352.09H332.692V538.05H249.917C214.434 538.05 185.67 510.74 185.67 477.054V413.085C185.67 379.398 214.434 352.09 249.917 352.09ZM670.638 352.09H753.412C788.896 352.09 817.66 379.398 817.66 413.085V477.054C817.66 510.74 788.896 538.05 753.412 538.05H670.638V352.09ZM508.647 352.09H655.671V538.05H508.647V352.09ZM346.233 352.09H493.254V538.05H346.233V352.09Z" fill="#36364E"/>
</svg>
