<svg width="761" height="761" viewBox="0 0 761 761" fill="none" xmlns="http://www.w3.org/2000/svg">
<path fill-rule="evenodd" clip-rule="evenodd" d="M382.183 112.628C583.052 112.628 738.273 202.603 738.273 365.67C750.718 566.604 586.399 697.085 385.529 697.085C184.66 697.085 20.2 574.824 24.419 366.014C24.419 202.948 181.312 112.628 382.183 112.628Z" fill="#222232"/>
<path fill-rule="evenodd" clip-rule="evenodd" d="M381.654 73.4844C582.12 73.4844 737.028 200.89 737.028 358.488C737.028 516.087 585.46 638.347 384.994 638.347C184.527 638.347 24.2759 516.446 24.2759 358.847C24.2759 201.249 181.187 73.4844 381.654 73.4844Z" fill="#39394E"/>
<path fill-rule="evenodd" clip-rule="evenodd" d="M380.484 100.21C548.437 100.21 684.588 209.777 684.679 327.445C697.244 491.845 548.436 589.655 380.484 589.663C212.532 589.672 70.7524 499.929 76.3785 333.075C76.3785 197.917 212.532 100.21 380.484 100.21Z" fill="#F0CFC1"/>
<path fill-rule="evenodd" clip-rule="evenodd" d="M380.484 100.21C548.437 100.21 684.588 200.504 684.588 324.222C684.588 447.94 548.436 548.234 380.484 548.234C212.532 548.234 76.38 447.94 76.38 324.222C76.38 200.504 212.532 100.21 380.484 100.21Z" fill="#FAEBD8"/>
<path fill-rule="evenodd" clip-rule="evenodd" d="M190.49 241.245H253.548V409.243H190.49C163.459 409.243 141.546 384.573 141.546 354.14V296.349C141.546 265.916 163.459 241.245 190.49 241.245ZM510.998 241.245H574.056C601.088 241.245 623 265.916 623 296.349V354.14C623 384.573 601.088 409.243 574.056 409.243H510.998V241.245ZM387.592 241.245H499.596V409.243H387.592V241.245ZM263.864 241.245H375.866V409.243H263.864V241.245Z" fill="#1D1D2F"/>
<path fill-rule="evenodd" clip-rule="evenodd" d="M190.187 267.94H253.179V409.456H190.187C163.184 409.456 141.295 388.673 141.295 363.038V314.358C141.295 288.722 163.184 267.94 190.187 267.94ZM510.356 267.94H573.347C600.35 267.94 622.239 288.722 622.239 314.358V363.038C622.239 388.673 600.35 409.456 573.347 409.456H510.356V267.94ZM387.08 267.94H498.966V409.456H387.08V267.94ZM263.483 267.94H375.366V409.456H263.483V267.94Z" fill="#36364E"/>
<path d="M191.012 373.524C185.947 373.524 181.536 372.651 177.781 370.904C174.026 369.07 171.144 366.363 169.135 362.782C167.126 359.114 166.122 354.573 166.122 349.158L166.122 300.557C166.122 295.055 167.126 290.47 169.135 286.802C171.231 283.047 174.157 280.252 177.912 278.418C181.667 276.497 186.078 275.536 191.143 275.536L210.924 275.536C216.339 275.536 220.793 276.54 224.286 278.549C227.867 280.558 230.53 283.44 232.277 287.195C234.024 290.863 234.897 295.317 234.897 300.557L234.897 349.158C234.897 357.193 232.757 363.262 228.478 367.367C224.199 371.472 218.304 373.524 210.793 373.524L191.012 373.524ZM194.811 358.852L206.601 358.852C210.793 358.852 213.85 357.848 215.771 355.839C217.78 353.743 218.784 350.73 218.784 346.8L218.784 302.129C218.784 297.85 217.736 294.793 215.64 292.959C213.631 291.038 210.837 290.077 207.256 290.077L194.287 290.077C190.532 290.077 187.606 291.125 185.51 293.221C183.414 295.23 182.366 298.199 182.366 302.129L182.366 346.8C182.366 350.905 183.458 353.961 185.641 355.97C187.824 357.891 190.881 358.852 194.811 358.852ZM310.498 373.524C305.433 373.524 301.023 372.651 297.267 370.904C293.512 369.07 290.63 366.363 288.621 362.782C286.613 359.114 285.608 354.573 285.608 349.158L285.608 300.557C285.608 295.055 286.613 290.47 288.621 286.802C290.717 283.047 293.643 280.252 297.398 278.418C301.154 276.497 305.564 275.536 310.629 275.536L330.41 275.536C335.825 275.536 340.279 276.54 343.772 278.549C347.353 280.558 350.017 283.44 351.763 287.195C353.51 290.863 354.383 295.317 354.383 300.557L354.383 349.158C354.383 357.193 352.244 363.262 347.964 367.367C343.685 371.472 337.79 373.524 330.279 373.524L310.498 373.524ZM314.297 358.852L326.087 358.852C330.279 358.852 333.336 357.848 335.257 355.839C337.266 353.743 338.27 350.73 338.27 346.8L338.27 302.129C338.27 297.85 337.222 294.793 335.126 292.959C333.118 291.038 330.323 290.077 326.742 290.077L313.773 290.077C310.018 290.077 307.092 291.125 304.996 293.221C302.9 295.23 301.852 298.199 301.852 302.129L301.852 346.8C301.852 350.905 302.944 353.961 305.127 355.97C307.311 357.891 310.367 358.852 314.297 358.852ZM429.985 373.524C424.919 373.524 420.509 372.651 416.754 370.904C412.998 369.07 410.116 366.363 408.108 362.782C406.099 359.114 405.095 354.573 405.095 349.158L405.095 300.557C405.095 295.055 406.099 290.47 408.108 286.802C410.204 283.047 413.129 280.252 416.885 278.418C420.64 276.497 425.05 275.536 430.116 275.536L449.897 275.536C455.311 275.536 459.765 276.54 463.259 278.549C466.839 280.558 469.503 283.44 471.25 287.195C472.996 290.863 473.87 295.317 473.87 300.557L473.87 349.158C473.87 357.193 471.73 363.262 467.451 367.367C463.171 371.472 457.276 373.524 449.766 373.524L429.985 373.524ZM433.784 358.852L445.574 358.852C449.766 358.852 452.822 357.848 454.744 355.839C456.752 353.743 457.757 350.73 457.757 346.8L457.757 302.129C457.757 297.85 456.709 294.793 454.613 292.959C452.604 291.038 449.809 290.077 446.229 290.077L433.26 290.077C429.504 290.077 426.579 291.125 424.483 293.221C422.387 295.23 421.339 298.199 421.339 302.129L421.339 346.8C421.339 350.905 422.43 353.961 424.614 355.97C426.797 357.891 429.854 358.852 433.784 358.852ZM549.471 373.524C544.406 373.524 539.995 372.651 536.24 370.904C532.485 369.07 529.603 366.363 527.594 362.782C525.585 359.114 524.581 354.573 524.581 349.158L524.581 300.557C524.581 295.055 525.585 290.47 527.594 286.802C529.69 283.047 532.616 280.252 536.371 278.418C540.126 276.497 544.537 275.536 549.602 275.536L569.383 275.536C574.798 275.536 579.252 276.54 582.745 278.549C586.326 280.558 588.989 283.44 590.736 287.195C592.483 290.863 593.356 295.317 593.356 300.557L593.356 349.158C593.356 357.193 591.216 363.262 586.937 367.367C582.658 371.472 576.763 373.524 569.252 373.524L549.471 373.524ZM553.27 358.852L565.06 358.852C569.252 358.852 572.309 357.848 574.23 355.839C576.239 353.743 577.243 350.73 577.243 346.8L577.243 302.129C577.243 297.85 576.195 294.793 574.099 292.959C572.09 291.038 569.296 290.077 565.715 290.077L552.746 290.077C548.991 290.077 546.065 291.125 543.969 293.221C541.873 295.23 540.825 298.199 540.825 302.129L540.825 346.8C540.825 350.905 541.917 353.961 544.1 355.97C546.283 357.891 549.34 358.852 553.27 358.852Z" fill="white"/>
<path d="M419.652 213.903C423.514 218.057 430.054 218.171 434.058 214.154L448.527 199.641C452.322 195.834 452.428 189.708 448.769 185.772L388.846 121.317C384.984 117.163 378.444 117.049 374.44 121.066L312.305 183.391C308.51 187.198 308.404 193.324 312.063 197.261L326.017 212.27C329.879 216.424 336.419 216.538 340.423 212.521L373.422 179.421C377.426 175.404 383.966 175.518 387.828 179.672L419.652 213.903Z" fill="#39394E"/>
<path d="M342.299 455.483C338.365 451.397 331.824 451.397 327.891 455.483L313.677 470.246C309.949 474.118 309.949 480.245 313.677 484.117L374.715 547.517C378.649 551.603 385.19 551.603 389.123 547.517L450.161 484.117C453.889 480.245 453.889 474.118 450.161 470.246L435.948 455.483C432.014 451.397 425.473 451.397 421.54 455.483L389.123 489.154C385.19 493.239 378.649 493.239 374.715 489.154L342.299 455.483Z" fill="#39394E"/>
</svg>
