<svg id="Forma_atualizada_E" data-name="Forma atualizada E" xmlns="http://www.w3.org/2000/svg" width="1000" height="1000" viewBox="0 0 1000 1000">
  <defs>
    <style>
      .cls-1 {
        fill: #222232;
      }

      .cls-1, .cls-2, .cls-3, .cls-4 {
        fill-rule: evenodd;
      }

      .cls-2 {
        fill: #39394e;
      }

      .cls-3 {
        fill: #f0cfc1;
      }

      .cls-4 {
        fill: #faebd8;
      }
    </style>
  </defs>
  <path id="Elipse_1_copiar_5" data-name="Elipse 1 copiar 5" class="cls-1" d="M502.211,148c263.955,0,467.924,118.233,467.924,332.512,16.354,264.04-199.571,435.5-463.526,435.5S26.544,755.353,32.088,480.965C32.088,266.686,238.255,148,502.211,148Z"/>
  <path id="Elipse_1_copiar_11" data-name="Elipse 1 copiar 11" class="cls-2" d="M501.516,96.563c263.425,0,466.984,167.418,466.984,374.512S769.33,838.827,505.905,838.827,31.9,678.641,31.9,471.547,238.091,96.563,501.516,96.563Z"/>
  <path id="Elipse_1_copiar_10" data-name="Elipse 1 copiar 10" class="cls-3" d="M499.979,131.682c220.7,0,399.611,143.978,399.73,298.6,16.512,216.032-179.031,344.56-399.73,344.571S92.973,656.937,100.366,437.681C100.366,260.075,279.28,131.682,499.979,131.682Z"/>
  <path id="Elipse_1_copiar_7" data-name="Elipse 1 copiar 7" class="cls-4" d="M499.979,131.682c220.7,0,399.611,131.792,399.611,294.365S720.678,720.412,499.979,720.412,100.368,588.62,100.368,426.047,279.28,131.682,499.979,131.682Z"/>
  <path id="Forma_1_copiar_2" data-name="Forma 1 copiar 2" class="cls-1" d="M249.008,247.246c0.054,73.278.218,294.291,0.263,355.5,1.647,8.082-1.12,15.042,15.64,15.881C333.838,618.7,593.95,618,623,618c59.28-.847,199.848-24.024,197.733-195.681C814.178,228.451,680.929,224.959,615,223c-11.988.415-246.919,0.452-336.088,0.455C259.993,222.581,248.985,225.151,249.008,247.246Z"/>
  <path id="Forma_1_copiar_4" data-name="Forma 1 copiar 4" class="cls-2" d="M249.008,283.352c0.054,73.278-1.047,255.652-1,316.859,1.647,8.082.011,17.239,16.771,18.078C333.7,618.363,584.95,619,614,619c75.44-2.336,204.913-31.633,206.615-180.609C814.061,244.523,637.323,261.884,623,260c-13.49-.229-254.919-0.442-344.088-0.439C259.993,258.687,248.985,261.258,249.008,283.352Z"/>
  <path id="Forma_1_copiar" data-name="Forma 1 copiar" class="cls-1" d="M344.671,308.226s0.155,198.957.19,242.945c0.958,4.569-.056,7.592,8.74,8.533,41.839-.036,220.561-0.187,240.22-0.187,39.731-.539,131.559-7.011,134.043-124.729C724.586,301.346,598.182,307.16,586.425,307.053,576.708,307.373,344.671,308.226,344.671,308.226Z"/>
  <path id="Forma_1_copiar_3" data-name="Forma 1 copiar 3" class="cls-4" d="M344.684,311.683c0.038,44.552.149,175.823,0.177,208.991,0.839,2.966-.638,7.787,6.92,7.676,38.161-.03,222.072-0.174,242.031-0.174,39.729-.5,131.553-6.455,134.037-114.845C724.571,290.465,598.173,295.818,586.416,295.72c-8.264.25-177.341,0.856-227.707,1.032C346.241,296.633,345.035,303.806,344.684,311.683Z"/>
</svg>
