<svg width="756" height="760" viewBox="0 0 756 760" fill="none" xmlns="http://www.w3.org/2000/svg">
<path fill-rule="evenodd" clip-rule="evenodd" d="M379.672 112.48C579.221 112.48 733.422 202.337 733.422 365.189C745.786 565.859 582.546 696.169 382.996 696.169C183.446 696.169 20.0673 574.068 24.2585 365.533C24.2585 202.681 180.121 112.48 379.672 112.48Z" fill="#222232"/>
<path fill-rule="evenodd" clip-rule="evenodd" d="M379.146 73.3879C578.295 73.3879 732.186 200.626 732.186 358.017C732.186 515.408 581.614 637.509 382.464 637.509C183.315 637.509 24.1164 515.767 24.1164 358.376C24.1164 200.984 179.997 73.3879 379.146 73.3879Z" fill="#39394E"/>
<path fill-rule="evenodd" clip-rule="evenodd" d="M377.984 100.078C544.833 100.078 680.09 209.502 680.18 327.014C692.663 491.199 544.833 588.88 377.984 588.888C211.136 588.897 70.2876 499.272 75.8767 332.638C75.8767 197.657 211.136 100.078 377.984 100.078Z" fill="#F0CFC1"/>
<path fill-rule="evenodd" clip-rule="evenodd" d="M377.984 100.078C544.833 100.078 680.09 200.24 680.09 323.796C680.09 447.351 544.833 547.513 377.984 547.513C211.136 547.513 75.8782 447.351 75.8782 323.796C75.8782 200.24 211.136 100.078 377.984 100.078Z" fill="#FAEBD8"/>
<path d="M290.865 368.192V355.392H348.209V368.192H290.865ZM290.865 337.472V324.672H348.209V337.472H290.865ZM424.381 392.512C419.432 392.512 415.122 391.659 411.453 389.952C407.784 388.16 404.968 385.515 403.005 382.016C401.042 378.432 400.061 373.995 400.061 368.704V321.216C400.061 315.84 401.042 311.36 403.005 307.776C405.053 304.107 407.912 301.376 411.581 299.584C415.25 297.707 419.56 296.768 424.509 296.768H443.837C449.128 296.768 453.48 297.749 456.893 299.712C460.392 301.675 462.994 304.491 464.701 308.16C466.408 311.744 467.261 316.096 467.261 321.216V368.704C467.261 376.555 465.17 382.485 460.989 386.496C456.808 390.507 451.048 392.512 443.709 392.512H424.381ZM428.093 378.176H439.613C443.709 378.176 446.696 377.195 448.573 375.232C450.536 373.184 451.517 370.24 451.517 366.4V322.752C451.517 318.571 450.493 315.584 448.445 313.792C446.482 311.915 443.752 310.976 440.253 310.976H427.581C423.912 310.976 421.053 312 419.005 314.048C416.957 316.011 415.933 318.912 415.933 322.752V366.4C415.933 370.411 417 373.397 419.133 375.36C421.266 377.237 424.253 378.176 428.093 378.176Z" fill="#39394E"/>
</svg>
