<svg id="Forma_atualizada_E" data-name="Forma atualizada E" xmlns="http://www.w3.org/2000/svg" width="1000" height="1000" viewBox="0 0 1000 1000">
  <defs>
    <style>
      .cls-1, .cls-5 {
        fill: #222232;
      }

      .cls-1, .cls-2, .cls-3, .cls-4 {
        fill-rule: evenodd;
      }

      .cls-2 {
        fill: #39394e;
      }

      .cls-3 {
        fill: #f0cfc1;
      }

      .cls-4 {
        fill: #faebd8;
      }
    </style>
  </defs>
  <path id="Elipse_1_copiar_5" data-name="Elipse 1 copiar 5" class="cls-1" d="M502.211,148c263.955,0,467.924,118.233,467.924,332.512,16.354,264.04-199.571,435.5-463.526,435.5S26.544,755.353,32.088,480.965C32.088,266.686,238.255,148,502.211,148Z"/>
  <path id="Elipse_1_copiar_11" data-name="Elipse 1 copiar 11" class="cls-2" d="M501.516,96.563c263.425,0,466.984,167.418,466.984,374.512S769.33,838.827,505.905,838.827,31.9,678.641,31.9,471.547,238.091,96.563,501.516,96.563Z"/>
  <path id="Elipse_1_copiar_10" data-name="Elipse 1 copiar 10" class="cls-3" d="M499.979,131.682c220.7,0,399.611,143.978,399.73,298.6,16.512,216.032-179.031,344.56-399.73,344.571S92.973,656.937,100.366,437.681C100.366,260.075,279.28,131.682,499.979,131.682Z"/>
  <path id="Elipse_1_copiar_7" data-name="Elipse 1 copiar 7" class="cls-4" d="M499.979,131.682c220.7,0,399.611,131.792,399.611,294.365S720.678,720.412,499.979,720.412,100.368,588.62,100.368,426.047,279.28,131.682,499.979,131.682Z"/>
  <path id="Forma_1_copiar_4" data-name="Forma 1 copiar 4" class="cls-1" d="M790.629,503.9C759.826,503.9,736,484.333,726,457,588.328,500.152,318.206,584.119,243.493,607.538c-11.795,3.313-19.322-.218-19.623-15.827-0.052-67.322-.41-301.748-0.439-340.7-0.325-4.581,3.783-11.11,10.54-8.342,44.111,14.511,343.774,113.067,491.162,161.54A71.364,71.364,0,1,1,790.629,503.9Z"/>
  <path id="Forma_1_copiar_6" data-name="Forma 1 copiar 6" class="cls-2" d="M792,504c-30.8-.431-55-18.667-65-46C589.328,501.152,318.206,585.119,243.493,608.538c-11.795,3.313-19.322-.218-19.623-15.827-0.052-67.322-.41-273.748-0.439-312.7-0.325-4.581,3.783-11.11,10.54-8.342C278.082,286.176,579.613,386.526,727,435c10.971-25.3,34.71-46.361,64-48,30.268-1.694,71.056,13.591,71,53C861.943,479.737,821.5,504.413,792,504Z"/>
  <path id="Forma_1_copiar_2" data-name="Forma 1 copiar 2" class="cls-1" d="M291.064,355.062s0.115,143.38.151,186.936c0.013,5.152,1.558,10.863,12.124,8.935,55.626-15.9,285.267-81.527,318.226-90.589,1.667-.78,4.216-1.907,4-5.635,0-4.382-.015-12.4-0.054-26.648C532.088,398.817,291.064,355.062,291.064,355.062Z"/>
  <path id="Forma_1_copiar_5" data-name="Forma 1 copiar 5" class="cls-4" d="M291.074,335.481c0.029,36.434.116,145.075,0.143,177.844,0.731,6.275,2.147,9.624,12.617,5.944C360.678,503.417,585.605,441.033,618,432c17.871-3.118.125-5.856,0-6-33.212-10.4-261.775-82.152-315.839-99.076C292.016,323.164,291.351,327.865,291.074,335.481Z"/>
  <circle id="Elipse_2" data-name="Elipse 2" class="cls-5" cx="793.313" cy="446.094" r="30.313"/>
  <path id="Elipse_2_copiar" data-name="Elipse 2 copiar" class="cls-4" d="M793.7,398.992a30.023,30.023,0,1,1-30.3,30.022A30.163,30.163,0,0,1,793.7,398.992Z"/>
</svg>
