<svg id="Forma_atualizada_E" data-name="Forma atualizada E" xmlns="http://www.w3.org/2000/svg" width="1000" height="1000" viewBox="0 0 1000 1000">
  <defs>
    <style>
      .cls-1 {
        fill: #222232;
      }

      .cls-1, .cls-2, .cls-3, .cls-4 {
        fill-rule: evenodd;
      }

      .cls-2 {
        fill: #39394e;
      }

      .cls-3 {
        fill: #f0cfc1;
      }

      .cls-4 {
        fill: #faebd8;
      }
    </style>
  </defs>
  <path id="Elipse_1_copiar_5" data-name="Elipse 1 copiar 5" class="cls-1" d="M502.211,148c263.955,0,467.924,118.233,467.924,332.512,16.354,264.04-199.571,435.5-463.526,435.5S26.544,755.353,32.088,480.965C32.088,266.686,238.255,148,502.211,148Z"/>
  <path id="Elipse_1_copiar_11" data-name="Elipse 1 copiar 11" class="cls-2" d="M501.516,96.563c263.425,0,466.984,167.418,466.984,374.512S769.33,838.827,505.905,838.827,31.9,678.641,31.9,471.547,238.091,96.563,501.516,96.563Z"/>
  <path id="Elipse_1_copiar_10" data-name="Elipse 1 copiar 10" class="cls-3" d="M499.979,131.682c220.7,0,399.611,143.978,399.73,298.6,16.512,216.032-179.031,344.56-399.73,344.571S92.973,656.937,100.366,437.681C100.366,260.075,279.28,131.682,499.979,131.682Z"/>
  <path id="Elipse_1_copiar_7" data-name="Elipse 1 copiar 7" class="cls-4" d="M499.979,131.682c220.7,0,399.611,131.792,399.611,294.365S720.678,720.412,499.979,720.412,100.368,588.62,100.368,426.047,279.28,131.682,499.979,131.682Z"/>
  <path id="Forma_1_copiar_2" data-name="Forma 1 copiar 2" class="cls-1" d="M251.635,236.129c11.749,30.75,40.389,114.041,40.449,195.449,0.055,73.317-25.677,145.1-38.29,175.869-5.115,14.485,8.184,14.908,13.734,15.675,75.6,0.083,335.552.366,364.277,0.366,114.82-23.581,170.6-147.815,189.051-186.421,4.011-8.393,5.525-14.3-.172-25.607C800.949,372.293,730.951,231.92,629,222.35c-13.041.45-304.736,1.209-369.6,1.372C255.129,224.882,248.9,227.443,251.635,236.129Z"/>
  <path id="Forma_1_copiar_4" data-name="Forma 1 copiar 4" class="cls-2" d="M265.635,277.129C277.384,307.879,291.94,354.592,292,436c0.054,73.317-28.593,140.676-41.206,171.447-5.115,14.485,8.184,14.908,13.734,15.675,75.6,0.083,335.552.366,364.277,0.366,114.82-23.581,172.6-144.815,191.051-183.421,4.011-8.393,5.525-14.3-.172-25.607C799.949,375.293,725.219,264.512,633,263c-13.042.45-294.739,1.559-359.6,1.722C269.129,265.882,262.9,268.443,265.635,277.129Z"/>
  <path id="Forma_1_copiar" data-name="Forma 1 copiar" class="cls-1" d="M347,305s0.213,13.512.768,28.511c0.386,7.628,2.477,9.381,4.622,13.321,12.659,19.491,22.964,50.948,22.987,82.874,0.027,38.8-18.735,71.3-27.7,97.125,0.2,15.208.541,28.279,0.722,34.633,0.044,3.141,3.387,4.015,4.413,4.071,31.173-.3,222.264-2.155,242.976-2.155,90.4-3.706,142.51-64.19,158.169-85.558,3.118-3.345,5.476-8.874,5-16.751,0.01-7.877.145-20.383,0.718-36.17C715.986,381.566,597.535,308.323,588.3,308.24,578.459,308.562,347,305,347,305Z"/>
  <path id="Forma_1_copiar_3" data-name="Forma 1 copiar 3" class="cls-4" d="M348.223,308.963c8.193,20.648,24.307,67.063,24.346,112.786,0.032,38.186-13.674,76.068-22.192,95.916-6.446,12.872,2.906,13.405,8.9,14.148,50.756-.245,209.619-1,228.539-1,106.089-1.038,158.342-81.184,170.077-101.884,1.6-2.874,2.478-6.278-.19-9.72-13.278-22.448-73.562-114.941-169.419-122.419-8.469.256-183.764,0.88-232.344,1.049C344.385,297.789,347.254,304.076,348.223,308.963Z"/>
</svg>
