<svg id="Botões" xmlns="http://www.w3.org/2000/svg" xmlns:xlink="http://www.w3.org/1999/xlink" width="350" height="350" viewBox="0 0 350 350">
  <defs>
    <style>
      .cls-1 {
        fill: #1434ab;
      }

      .cls-1, .cls-2, .cls-3, .cls-4, .cls-5, .cls-6, .cls-7 {
        fill-rule: evenodd;
      }

      .cls-2 {
        fill: url(#linear-gradient);
      }

      .cls-3 {
        fill: url(#linear-gradient-2);
      }

      .cls-4 {
        fill: #a8ccf6;
      }

      .cls-5 {
        fill: #b8d5f8;
      }

      .cls-6 {
        fill: #bdd9f9;
      }

      .cls-7 {
        fill: #0e2887;
      }
    </style>
    <linearGradient id="linear-gradient" x1="291.643" y1="334.531" x2="54.45" y2="8.063" gradientUnits="userSpaceOnUse">
      <stop offset="0" stop-color="#5997fb"/>
      <stop offset="0.289" stop-color="#4377fb"/>
      <stop offset="1" stop-color="#1434ab"/>
    </linearGradient>
    <linearGradient id="linear-gradient-2" x1="78.759" y1="38.219" x2="274.085" y2="307.062" gradientUnits="userSpaceOnUse">
      <stop offset="0" stop-color="#5997fb"/>
      <stop offset="0.054" stop-color="#5997fb"/>
      <stop offset="0.309" stop-color="#4377fb"/>
      <stop offset="0.494" stop-color="#4377fb"/>
      <stop offset="0.85" stop-color="#1434ab"/>
      <stop offset="1" stop-color="#1434ab"/>
    </linearGradient>
  </defs>
  <g id="Botão_Azul" data-name="Botão Azul">
    <g id="Botão_Azul_Neutro" data-name="Botão Azul Neutro">
      <path id="Elipse_2" data-name="Elipse 2" class="cls-1" d="M174.7,11.877c91.992,0,166.566,73.089,166.566,163.248S266.7,338.372,174.7,338.372,8.136,265.284,8.136,175.125,82.711,11.877,174.7,11.877Z"/>
      <path id="Elipse_2_copiar_3" data-name="Elipse 2 copiar 3" class="cls-2" d="M173.05,8.049c91.992,0,166.566,73.089,166.566,163.248S265.042,334.545,173.05,334.545,6.483,261.456,6.483,171.3,81.058,8.049,173.05,8.049Z"/>
      <path id="Elipse_2_copiar_2" data-name="Elipse 2 copiar 2" class="cls-3" d="M176.423,307.068c75.752,0,137.161-60.186,137.161-134.429S252.175,38.211,176.423,38.211,39.262,98.4,39.262,172.639,100.671,307.068,176.423,307.068Z"/>
      <path id="Forma_1" data-name="Forma 1" class="cls-4" d="M41.659,147.628C51.91,90.776,111.29,18.219,211.735,42.8,115.9,26.3,52.864,98.966,41.659,147.628Z"/>
      <g id="Entrada">
        <path id="Forma_28_copiar_2" data-name="Forma 28 copiar 2" class="cls-5" d="M92,171h81s-22.023-22.553-26-26-1.583-21.485,13-13c5.3,3.977,26.6,27.924,38,38s0,17,0,17-28.251,29.938-35,35c-4.492,8.465-24.382,3.689-13-11,6.749-7.955,23-23,23-23s-75.7,1.241-81,1S77.778,177.267,92,171Z"/>
        <path id="Retângulo_1_copiar_2" data-name="Retângulo 1 copiar 2" class="cls-6" d="M175.664,99.312c80.924,5.637,83.773,72.085,83.49,84.875-1.286,79.924-78.043,86.361-83.49,86.556-14.652-.371-16.363-4.961-16.322-9.794,0.046-5.305,3.151-10.85,15.927-10.189,17.251-.769,64.806-13.126,63.111-66.178-0.285-23.352-10.887-63.953-62.716-65.486-13.875.627-16.931-6.7-16.915-10.485C158.773,102.584,164.363,99.379,175.664,99.312Z"/>
        <path id="Retângulo_1_copiar_3" data-name="Retângulo 1 copiar 3" class="cls-1" d="M175.055,88.264c80.924,5.637,83.773,72.085,83.49,84.874-1.286,79.924-78.043,86.362-83.49,86.556-14.652-.37-16.363-4.96-16.322-9.793,0.046-5.305,3.151-10.85,15.927-10.189,17.252-.769,64.806-13.126,63.112-66.178-0.286-23.352-10.888-63.953-62.717-65.486-13.875.627-16.931-6.7-16.915-10.486C158.165,91.536,163.755,88.331,175.055,88.264Z"/>
        <path id="Forma_28_copiar_2-2" data-name="Forma 28 copiar 2" class="cls-1" d="M92,164h81s-22.023-22.553-26-26-1.583-21.485,13-13c5.3,3.977,26.6,27.924,38,38s0,17,0,17-28.251,29.938-35,35c-4.492,8.465-24.382,3.689-13-11,6.749-7.955,23-23,23-23s-75.7,1.241-81,1S77.778,170.267,92,164Z"/>
        <path id="Forma_22" data-name="Forma 22" class="cls-7" d="M85.123,170.9c1.83-7.6,9.308-6.264,9.308-6.264h79.86v5.481S87.658,170.946,85.123,170.9Z"/>
        <path id="Forma_23" data-name="Forma 23" class="cls-7" d="M147.15,138.363a7.378,7.378,0,0,1-.957-8.873,18.621,18.621,0,0,1,3.741-4,7.435,7.435,0,0,1,9.83,1.044,108.378,108.378,0,0,1,8.264,7.917c0.342,0.367-9.845-7.077-14.18-5.133a10.367,10.367,0,0,0-4.349,3.393C148.313,134.119,147.15,138.363,147.15,138.363Z"/>
        <path id="Forma_24" data-name="Forma 24" class="cls-7" d="M148.716,217.005c-8.463-7.122.7-13.832,0.7-13.832l21.835-21.226,0.261,5.133s-17.73,17.991-20.1,20.356S146.981,210.254,148.716,217.005Z"/>
        <path id="Forma_25" data-name="Forma 25" class="cls-7" d="M160.025,102.783c-0.572-8.984,7.133-8.525,7.133-8.525s34.846-4.391,73.51,24.01c-23.56-30.714-67.064-30.176-67.594-30.013C168.015,88.051,151.907,90.84,160.025,102.783Z"/>
        <path id="Forma_26" data-name="Forma 26" class="cls-7" d="M161.852,256.848c0.39,1.408-.358-7.961,11.135-9.134,58.759-5.3,62.722-53.24,62.722-53.24s-17.928,46.861-67.159,45.237C160.654,239.242,154.346,249.969,161.852,256.848Z"/>
      </g>
    </g>
  </g>
</svg>
