<svg id="Botões" xmlns="http://www.w3.org/2000/svg" xmlns:xlink="http://www.w3.org/1999/xlink" width="350" height="350" viewBox="0 0 350 350">
  <defs>
    <style>
      .cls-1 {
        fill: #1434ab;
      }

      .cls-1, .cls-2, .cls-3, .cls-4, .cls-5, .cls-6 {
        fill-rule: evenodd;
      }

      .cls-2 {
        fill: url(#linear-gradient);
      }

      .cls-3 {
        fill: url(#linear-gradient-2);
      }

      .cls-4 {
        fill: #a8ccf6;
      }

      .cls-5 {
        fill: #b8d5f8;
      }

      .cls-6 {
        fill: #0e2887;
      }
    </style>
    <linearGradient id="linear-gradient" x1="291.643" y1="334.531" x2="54.45" y2="8.063" gradientUnits="userSpaceOnUse">
      <stop offset="0" stop-color="#5997fb"/>
      <stop offset="0.289" stop-color="#4377fb"/>
      <stop offset="1" stop-color="#1434ab"/>
    </linearGradient>
    <linearGradient id="linear-gradient-2" x1="78.759" y1="38.219" x2="274.085" y2="307.062" gradientUnits="userSpaceOnUse">
      <stop offset="0" stop-color="#5997fb"/>
      <stop offset="0.054" stop-color="#5997fb"/>
      <stop offset="0.309" stop-color="#4377fb"/>
      <stop offset="0.494" stop-color="#4377fb"/>
      <stop offset="0.85" stop-color="#1434ab"/>
      <stop offset="1" stop-color="#1434ab"/>
    </linearGradient>
  </defs>
  <g id="Botão_Azul" data-name="Botão Azul">
    <g id="Botão_Azul_Neutro" data-name="Botão Azul Neutro">
      <path id="Elipse_2" data-name="Elipse 2" class="cls-1" d="M174.7,11.877c91.992,0,166.566,73.089,166.566,163.248S266.7,338.372,174.7,338.372,8.136,265.284,8.136,175.125,82.711,11.877,174.7,11.877Z"/>
      <path id="Elipse_2_copiar_3" data-name="Elipse 2 copiar 3" class="cls-2" d="M173.05,8.049c91.992,0,166.566,73.089,166.566,163.248S265.042,334.545,173.05,334.545,6.483,261.456,6.483,171.3,81.058,8.049,173.05,8.049Z"/>
      <path id="Elipse_2_copiar_2" data-name="Elipse 2 copiar 2" class="cls-3" d="M176.423,307.068c75.752,0,137.161-60.186,137.161-134.429S252.175,38.211,176.423,38.211,39.262,98.4,39.262,172.639,100.671,307.068,176.423,307.068Z"/>
      <path id="Forma_1" data-name="Forma 1" class="cls-4" d="M41.659,147.628C51.91,90.776,111.29,18.219,211.735,42.8,115.9,26.3,52.864,98.966,41.659,147.628Z"/>
      <g id="Saída">
        <path id="Forma_28_copiar" data-name="Forma 28 copiar" class="cls-5" d="M149,171h81s-22.023-22.553-26-26-1.583-21.485,13-13c5.3,3.977,26.6,27.924,38,38s0,17,0,17-28.251,29.938-35,35c-4.492,8.465-24.382,3.689-13-11,6.749-7.955,23-23,23-23s-75.7,1.241-81,1S134.778,177.267,149,171Z"/>
        <path id="Retângulo_1_copiar_2" data-name="Retângulo 1 copiar 2" class="cls-5" d="M175.621,97.651c-82.136,5.722-85.028,73.165-84.74,86.146,1.306,81.121,79.211,87.655,84.74,87.852,14.871-.376,16.609-5.034,16.566-9.939-0.047-5.385-3.2-11.013-16.165-10.342-17.51-.781-65.776-13.323-64.057-67.169,0.29-23.7,11.051-64.912,63.656-66.467,14.083,0.636,17.184-6.8,17.169-10.643C192.765,100.972,187.091,97.719,175.621,97.651Z"/>
        <path id="Retângulo_1_copiar_4" data-name="Retângulo 1 copiar 4" class="cls-1" d="M175.36,87.124c-82.136,5.721-85.028,73.165-84.74,86.146,1.306,81.121,79.211,87.655,84.74,87.852,14.871-.376,16.609-5.035,16.566-9.94-0.047-5.384-3.2-11.013-16.165-10.341-17.51-.781-65.776-13.323-64.057-67.17,0.29-23.7,11.051-64.911,63.656-66.466,14.083,0.636,17.184-6.8,17.169-10.643C192.5,90.446,186.83,87.193,175.36,87.124Z"/>
        <path id="Forma_28" data-name="Forma 28" class="cls-1" d="M149,164h81s-22.023-22.553-26-26-1.583-21.485,13-13c5.3,3.977,26.6,27.924,38,38s0,17,0,17-28.251,29.938-35,35c-4.492,8.465-24.382,3.689-13-11,6.749-7.955,23-23,23-23s-75.7,1.241-81,1S134.778,170.267,149,164Z"/>
        <path id="Forma_22_copiar" data-name="Forma 22 copiar" class="cls-6" d="M141.756,170.986c1.83-7.6,9.308-6.264,9.308-6.264l80.991-.087v5.481S144.29,171.033,141.756,170.986Z"/>
        <path id="Forma_23_copiar" data-name="Forma 23 copiar" class="cls-6" d="M204.478,137.493a7.38,7.38,0,0,1-.957-8.873,18.673,18.673,0,0,1,3.741-4,7.436,7.436,0,0,1,9.83,1.044,108.257,108.257,0,0,1,8.265,7.917c0.341,0.368-9.846-7.077-14.18-5.133a10.37,10.37,0,0,0-4.35,3.393C205.641,133.249,204.478,137.493,204.478,137.493Z"/>
        <path id="Forma_24_copiar" data-name="Forma 24 copiar" class="cls-6" d="M206.131,217.7c-8.462-7.122.7-13.832,0.7-13.832l22.357-21.661,0.261,5.133s-18.251,18.425-20.617,20.791S204.4,210.95,206.131,217.7Z"/>
        <path id="Forma_25_copiar" data-name="Forma 25 copiar" class="cls-6" d="M190.646,102c0.46-8.722-7.467-8.93-7.467-8.93s-35.287-4.334-73.958,24.067c23.564-30.714,67.511-30.233,68.042-30.07C184.512,86.863,198,90.769,190.646,102Z"/>
        <path id="Forma_26_copiar" data-name="Forma 26 copiar" class="cls-6" d="M188.139,258.531c-0.391,1.407.357-7.961-11.137-9.134-58.771-5.3-62.735-53.24-62.735-53.24s17.135,45.961,66.375,44.337C191.748,240.9,196.594,252.6,188.139,258.531Z"/>
      </g>
    </g>
  </g>
</svg>
