<svg width="350" height="350" viewBox="0 0 350 350" fill="none" xmlns="http://www.w3.org/2000/svg">
<path fill-rule="evenodd" clip-rule="evenodd" d="M174.217 12.828C266.209 12.828 340.783 85.917 340.783 176.076C340.783 266.235 266.217 339.323 174.217 339.323C82.2171 339.323 7.65308 266.235 7.65308 176.076C7.65308 85.917 82.2281 12.828 174.217 12.828Z" fill="#1434AB"/>
<path fill-rule="evenodd" clip-rule="evenodd" d="M172.567 9C264.559 9 339.133 82.089 339.133 172.248C339.133 262.407 264.559 335.496 172.567 335.496C80.575 335.496 6 262.407 6 172.251C6 82.095 80.575 9 172.567 9Z" fill="url(#paint0_linear_202_32)"/>
<path fill-rule="evenodd" clip-rule="evenodd" d="M175.94 308.019C251.692 308.019 313.101 247.833 313.101 173.59C313.101 99.347 251.692 39.162 175.94 39.162C100.188 39.162 38.7791 99.351 38.7791 173.59C38.7791 247.829 100.188 308.019 175.94 308.019Z" fill="url(#paint1_linear_202_32)"/>
<path fill-rule="evenodd" clip-rule="evenodd" d="M41.176 148.579C51.427 91.727 110.807 19.17 211.252 43.751C115.417 27.251 52.381 99.917 41.176 148.579Z" fill="#A8CCF6"/>
<path d="M144.076 82V100.875C144.076 103.636 146.314 105.875 149.076 105.875H167.23C167.442 105.875 167.613 106.047 167.613 106.259V106.259C167.613 106.45 167.472 106.611 167.283 106.639C127.431 112.515 97 147.533 97 189.438C97 235.516 133.954 273 179.382 273C224.81 273 261.765 235.516 261.765 189.438C261.765 180.573 260.162 172.196 257.618 164.44C256.74 161.762 253.734 160.503 251.138 161.602L238.872 166.798C236.406 167.842 235.225 170.639 235.967 173.212C237.511 178.567 238.227 183.904 238.227 189.676C238.227 222.863 212.1 249.364 179.382 249.364C146.665 249.364 120.538 222.863 120.538 189.676C120.538 156.49 146.665 129.989 179.382 129.989C184.77 129.989 190.02 130.684 195.238 132.179C197.939 132.954 200.873 131.628 201.817 128.981L206.413 116.092C207.343 113.484 205.978 110.606 203.298 109.914C199.572 108.952 195.74 108.294 191.801 107.652C191.427 107.591 191.151 107.267 191.151 106.888V106.888C191.151 106.46 191.498 106.114 191.925 106.114H209.689C212.45 106.114 214.689 103.875 214.689 101.114V87.2387C214.689 84.4773 212.45 82.2387 209.689 82.2387H144.314C144.182 82.2387 144.076 82.1319 144.076 82V82ZM261.797 109.695C261.776 109.695 261.779 109.684 261.762 109.697C261.206 110.131 175.837 176.799 171.379 181.32C166.907 186.095 166.907 193.019 171.379 197.794C175.852 202.569 182.913 202.569 187.621 197.794C192.232 193.116 259.195 113.049 261.915 109.797C261.966 109.735 261.878 109.695 261.797 109.695V109.695Z" fill="#C0DBFB"/>
<path d="M140.076 76V94.875C140.076 97.6364 142.314 99.875 145.076 99.875H163.23C163.442 99.875 163.613 100.047 163.613 100.259V100.259C163.613 100.45 163.472 100.611 163.283 100.639C123.431 106.515 93 141.533 93 183.438C93 229.516 129.954 267 175.382 267C220.81 267 257.765 229.516 257.765 183.438C257.765 174.573 256.162 166.196 253.618 158.44C252.74 155.762 249.734 154.503 247.138 155.602L234.872 160.798C232.406 161.842 231.225 164.639 231.967 167.212C233.511 172.567 234.227 177.904 234.227 183.676C234.227 216.863 208.1 243.364 175.382 243.364C142.665 243.364 116.538 216.863 116.538 183.676C116.538 150.49 142.665 123.989 175.382 123.989C180.77 123.989 186.02 124.684 191.238 126.179C193.939 126.954 196.873 125.628 197.817 122.981L202.413 110.092C203.343 107.484 201.978 104.606 199.298 103.914C195.572 102.952 191.74 102.294 187.801 101.652C187.427 101.591 187.151 101.267 187.151 100.888V100.888C187.151 100.46 187.498 100.114 187.925 100.114H205.689C208.45 100.114 210.689 97.8752 210.689 95.1138V81.2387C210.689 78.4773 208.45 76.2387 205.689 76.2387H140.314C140.182 76.2387 140.076 76.1319 140.076 76V76ZM257.797 103.695C257.776 103.695 257.779 103.684 257.762 103.697C257.206 104.131 171.837 170.799 167.379 175.32C162.907 180.095 162.907 187.019 167.379 191.794C171.852 196.569 178.913 196.569 183.621 191.794C188.232 187.116 255.195 107.049 257.915 103.797C257.966 103.735 257.878 103.695 257.797 103.695V103.695Z" fill="#1434AB"/>
<path d="M143.635 79.5H210.134V76H140.135V99H143.635V79.5Z" fill="#0E2887"/>
<path d="M153.012 104.065C74.6792 136.722 91.9117 248.681 163.635 265.5C151.635 265 95.5437 243.501 93.1346 190.5C89.6346 113.5 154.873 101.5 163 100.5H164C164 100.5 163.891 101.505 164 101.5C163.08 101.5 157.651 102.817 153.012 104.065Z" fill="#0E2887"/>
<path d="M170 172L257.222 103.717C228.366 126.349 172.076 183.21 166.024 189.441C166.021 189.467 166.014 189.486 166 189.5C165.298 190.203 165.342 190.143 166.024 189.441C166.104 188.535 159.301 180.268 170 172Z" fill="#0E2887"/>
<path d="M188 241.5C238 225.5 236.5 181.333 230 161.5L252 152.5L253.5 157L235 163.5C235 163.5 239 196 231 214.5C224.6 229.3 199.667 238.667 188 241.5Z" fill="#0E2887"/>
<defs>
<linearGradient id="paint0_linear_202_32" x1="291.16" y1="335.482" x2="53.967" y2="9.01402" gradientUnits="userSpaceOnUse">
<stop stop-color="#5997FB"/>
<stop offset="0.289" stop-color="#4377FB"/>
<stop offset="1" stop-color="#1434AB"/>
</linearGradient>
<linearGradient id="paint1_linear_202_32" x1="78.2761" y1="39.17" x2="273.602" y2="308.013" gradientUnits="userSpaceOnUse">
<stop stop-color="#5997FB"/>
<stop offset="0.054" stop-color="#5997FB"/>
<stop offset="0.309" stop-color="#4377FB"/>
<stop offset="0.494" stop-color="#4377FB"/>
<stop offset="0.85" stop-color="#1434AB"/>
<stop offset="1" stop-color="#1434AB"/>
</linearGradient>
</defs>
</svg>
