<svg width="350" height="350" viewBox="0 0 350 350" fill="none" xmlns="http://www.w3.org/2000/svg">
<path fill-rule="evenodd" clip-rule="evenodd" d="M174.217 12.8279C266.209 12.8279 340.783 85.9169 340.783 176.076C340.783 266.235 266.217 339.323 174.217 339.323C82.2171 339.323 7.65308 266.235 7.65308 176.076C7.65308 85.9169 82.2281 12.8279 174.217 12.8279Z" fill="#1434AB"/>
<path fill-rule="evenodd" clip-rule="evenodd" d="M172.567 9C264.559 9 339.133 82.089 339.133 172.248C339.133 262.407 264.559 335.496 172.567 335.496C80.575 335.496 6 262.407 6 172.251C6 82.095 80.575 9 172.567 9Z" fill="url(#paint0_linear_535_14)"/>
<path fill-rule="evenodd" clip-rule="evenodd" d="M175.94 308.019C251.692 308.019 313.101 247.833 313.101 173.59C313.101 99.3471 251.692 39.1621 175.94 39.1621C100.188 39.1621 38.7791 99.3511 38.7791 173.59C38.7791 247.829 100.188 308.019 175.94 308.019Z" fill="url(#paint1_linear_535_14)"/>
<path fill-rule="evenodd" clip-rule="evenodd" d="M41.176 148.579C51.427 91.7271 110.807 19.1701 211.252 43.7511C115.417 27.2511 52.381 99.9171 41.176 148.579Z" fill="#A8CCF6"/>
<path d="M119.491 90.6347C116.411 88.2211 112.035 88.5147 109.247 91.2871L96.2786 104.334C93.5229 107.106 93.2311 111.509 95.5978 114.64L121.534 148.562C122.993 150.486 125.295 151.627 127.694 151.627H145.233L180.571 187.179C175.805 196.638 177.329 208.51 185.207 216.404L221.517 252.934C225.57 257.011 232.151 257.011 236.204 252.934L256.953 232.06C261.005 227.982 261.005 221.361 256.953 217.284L220.642 180.754C212.796 172.861 200.995 171.295 191.594 176.09L156.256 140.538V122.925C156.256 120.479 155.121 118.196 153.208 116.728L119.491 90.6347ZM100.461 218.198C96.3434 222.34 94.0092 227.982 94.0092 233.853C94.0092 246.085 103.865 256 116.022 256C121.858 256 127.467 253.652 131.584 249.509L169.775 211.087C167.246 204.27 166.857 196.866 168.608 189.854L148.605 169.73L100.461 218.198ZM260 135.972C260 132.547 259.643 129.22 258.963 126.024C258.184 122.371 253.743 121.425 251.117 124.067L230.4 144.908C229.428 145.887 228.099 146.441 226.737 146.441H208.128C205.275 146.441 202.941 144.093 202.941 141.223V122.468C202.941 121.098 203.492 119.761 204.464 118.783L225.181 97.9408C227.807 95.2989 226.867 90.8304 223.236 90.0476C220.026 89.3627 216.719 89.0039 213.315 89.0039C187.541 89.0039 166.63 110.042 166.63 135.972V136.233L194.284 164.054C205.956 161.086 218.859 164.217 228.001 173.415L233.091 178.536C248.977 171.034 260 154.791 260 135.972ZM112.164 229.907C112.164 227.831 112.984 225.84 114.443 224.372C115.903 222.904 117.882 222.079 119.945 222.079C122.009 222.079 123.988 222.904 125.447 224.372C126.906 225.84 127.726 227.831 127.726 229.907C127.726 231.983 126.906 233.974 125.447 235.442C123.988 236.91 122.009 237.735 119.945 237.735C117.882 237.735 115.903 236.91 114.443 235.442C112.984 233.974 112.164 231.983 112.164 229.907Z" fill="#C0DBFB"/>
<path d="M115.491 90.6347C112.411 88.2211 108.035 88.5147 105.247 91.2871L92.2786 104.334C89.5229 107.106 89.2311 111.509 91.5978 114.64L117.534 148.562C118.993 150.486 121.295 151.627 123.694 151.627H141.233L176.571 187.179C171.805 196.638 173.329 208.51 181.207 216.404L217.517 252.934C221.57 257.011 228.151 257.011 232.204 252.934L252.953 232.06C257.005 227.982 257.005 221.361 252.953 217.284L216.642 180.754C208.796 172.861 196.995 171.295 187.594 176.09L152.256 140.538V122.925C152.256 120.479 151.121 118.196 149.208 116.728L115.491 90.6347ZM96.4608 218.198C92.3434 222.34 90.0092 227.982 90.0092 233.853C90.0092 246.085 99.8649 256 112.022 256C117.858 256 123.467 253.652 127.584 249.509L165.775 211.087C163.246 204.27 162.857 196.866 164.608 189.854L144.605 169.73L96.4608 218.198ZM256 135.972C256 132.547 255.643 129.22 254.963 126.024C254.184 122.371 249.743 121.425 247.117 124.067L226.4 144.908C225.428 145.887 224.099 146.441 222.737 146.441H204.128C201.275 146.441 198.941 144.093 198.941 141.223V122.468C198.941 121.098 199.492 119.761 200.464 118.783L221.181 97.9408C223.807 95.2989 222.867 90.8304 219.236 90.0476C216.026 89.3627 212.719 89.0039 209.315 89.0039C183.541 89.0039 162.63 110.042 162.63 135.972V136.233L190.284 164.054C201.956 161.086 214.859 164.217 224.001 173.415L229.091 178.536C244.977 171.034 256 154.791 256 135.972ZM108.164 229.907C108.164 227.831 108.984 225.84 110.443 224.372C111.903 222.904 113.882 222.079 115.945 222.079C118.009 222.079 119.988 222.904 121.447 224.372C122.906 225.84 123.726 227.831 123.726 229.907C123.726 231.983 122.906 233.974 121.447 235.442C119.988 236.91 118.009 237.735 115.945 237.735C113.882 237.735 111.903 236.91 110.443 235.442C108.984 233.974 108.164 231.983 108.164 229.907Z" fill="#1434AB"/>
<defs>
<linearGradient id="paint0_linear_535_14" x1="291.16" y1="335.482" x2="53.967" y2="9.01402" gradientUnits="userSpaceOnUse">
<stop stop-color="#5997FB"/>
<stop offset="0.289" stop-color="#4377FB"/>
<stop offset="1" stop-color="#1434AB"/>
</linearGradient>
<linearGradient id="paint1_linear_535_14" x1="78.2761" y1="39.1701" x2="273.602" y2="308.013" gradientUnits="userSpaceOnUse">
<stop stop-color="#5997FB"/>
<stop offset="0.054" stop-color="#5997FB"/>
<stop offset="0.309" stop-color="#4377FB"/>
<stop offset="0.494" stop-color="#4377FB"/>
<stop offset="0.85" stop-color="#1434AB"/>
<stop offset="1" stop-color="#1434AB"/>
</linearGradient>
</defs>
</svg>
