<svg id="Botões" xmlns="http://www.w3.org/2000/svg" xmlns:xlink="http://www.w3.org/1999/xlink" width="350" height="350" viewBox="0 0 350 350">
  <defs>
    <style>
      .cls-1 {
        fill: #1434ab;
      }

      .cls-1, .cls-2, .cls-3, .cls-4, .cls-5, .cls-6 {
        fill-rule: evenodd;
      }

      .cls-2 {
        fill: url(#linear-gradient);
      }

      .cls-3 {
        fill: url(#linear-gradient-2);
      }

      .cls-4 {
        fill: #a8ccf6;
      }

      .cls-5 {
        fill: #bddafb;
      }

      .cls-6 {
        fill: #0e2887;
      }
    </style>
    <linearGradient id="linear-gradient" x1="291.643" y1="334.531" x2="54.45" y2="8.063" gradientUnits="userSpaceOnUse">
      <stop offset="0" stop-color="#5997fb"/>
      <stop offset="0.289" stop-color="#4377fb"/>
      <stop offset="1" stop-color="#1434ab"/>
    </linearGradient>
    <linearGradient id="linear-gradient-2" x1="78.759" y1="38.219" x2="274.085" y2="307.062" gradientUnits="userSpaceOnUse">
      <stop offset="0" stop-color="#5997fb"/>
      <stop offset="0.054" stop-color="#5997fb"/>
      <stop offset="0.309" stop-color="#4377fb"/>
      <stop offset="0.494" stop-color="#4377fb"/>
      <stop offset="0.85" stop-color="#1434ab"/>
      <stop offset="1" stop-color="#1434ab"/>
    </linearGradient>
  </defs>
  <g id="Botão_Azul" data-name="Botão Azul">
    <g id="Botão_Azul_Neutro" data-name="Botão Azul Neutro">
      <path id="Elipse_2" data-name="Elipse 2" class="cls-1" d="M174.7,11.877c91.992,0,166.566,73.089,166.566,163.248S266.7,338.372,174.7,338.372,8.136,265.284,8.136,175.125,82.711,11.877,174.7,11.877Z"/>
      <path id="Elipse_2_copiar_3" data-name="Elipse 2 copiar 3" class="cls-2" d="M173.05,8.049c91.992,0,166.566,73.089,166.566,163.248S265.042,334.545,173.05,334.545,6.483,261.456,6.483,171.3,81.058,8.049,173.05,8.049Z"/>
      <path id="Elipse_2_copiar_2" data-name="Elipse 2 copiar 2" class="cls-3" d="M176.423,307.068c75.752,0,137.161-60.186,137.161-134.429S252.175,38.211,176.423,38.211,39.262,98.4,39.262,172.639,100.671,307.068,176.423,307.068Z"/>
      <path id="Forma_1" data-name="Forma 1" class="cls-4" d="M41.659,147.628C51.91,90.776,111.29,18.219,211.735,42.8,115.9,26.3,52.864,98.966,41.659,147.628Z"/>
      <g id="Dispositivos">
        <path id="Retângulo_5_copiar_5" data-name="Retângulo 5 copiar 5" class="cls-5" d="M260.51,208.716a2,2,0,0,1,2,2V223a2,2,0,0,1-2,2H238.392v13.582a5,5,0,0,1-5,5H219.5v20.325a2,2,0,0,1-2,2H205.218a2,2,0,0,1-2-2V243.581H184.833v20.325a2,2,0,0,1-2,2H170.549a2,2,0,0,1-2-2V243.581h-20.88v20.325a2,2,0,0,1-2,2H133.386a2,2,0,0,1-2-2V243.581H117.849a5,5,0,0,1-5-5V225H90.115a2,2,0,0,1-2-2V210.716a2,2,0,0,1,2-2h22.734V190.331H90.115a2,2,0,0,1-2-2V176.047a2,2,0,0,1,2-2h22.734v-20.88H90.115a2,2,0,0,1-2-2V138.883a2,2,0,0,1,2-2h22.734V123.17a5,5,0,0,1,5-5h13.537V95.087a2,2,0,0,1,2-2h12.283a2,2,0,0,1,2,2V118.17h20.88V95.087a2,2,0,0,1,2-2h12.284a2,2,0,0,1,2,2V118.17h18.385V95.087a2,2,0,0,1,2-2H217.5a2,2,0,0,1,2,2V118.17h13.89a5,5,0,0,1,5,5v13.713H260.51a2,2,0,0,1,2,2v12.284a2,2,0,0,1-2,2H238.392v20.88H260.51a2,2,0,0,1,2,2v12.284a2,2,0,0,1-2,2H238.392v18.385H260.51Zm-36.7-67.028a5,5,0,0,0-5-5H133.473a5,5,0,0,0-5,5V221.4a5,5,0,0,0,5,5h85.333a5,5,0,0,0,5-5V141.688Zm-21.157,68.553H147.22a5,5,0,0,1-5-5v-49.36a5,5,0,0,1,5-5h55.429a5,5,0,0,1,5,5v49.36A5,5,0,0,1,202.649,210.241Z"/>
        <path id="Retângulo_5_copiar_6" data-name="Retângulo 5 copiar 6" class="cls-1" d="M259.292,203.061a2,2,0,0,1,2,2v12.284a2,2,0,0,1-2,2H237.174v13.582a5,5,0,0,1-5,5h-13.89v20.324a2,2,0,0,1-2,2H204a2,2,0,0,1-2-2V237.927H183.615v20.324a2,2,0,0,1-2,2H169.332a2,2,0,0,1-2-2V237.927H146.451v20.324a2,2,0,0,1-2,2H132.168a2,2,0,0,1-2-2V237.927H116.631a5,5,0,0,1-5-5V219.345H88.9a2,2,0,0,1-2-2V205.061a2,2,0,0,1,2-2h22.734V184.676H88.9a2,2,0,0,1-2-2V170.392a2,2,0,0,1,2-2h22.734v-20.88H88.9a2,2,0,0,1-2-2V133.228a2,2,0,0,1,2-2h22.734V117.515a5,5,0,0,1,5-5h13.537V89.433a2,2,0,0,1,2-2h12.283a2,2,0,0,1,2,2v23.082h20.881V89.433a2,2,0,0,1,2-2h12.283a2,2,0,0,1,2,2v23.082H202V89.433a2,2,0,0,1,2-2h12.284a2,2,0,0,1,2,2v23.082h13.89a5,5,0,0,1,5,5v13.713h22.118a2,2,0,0,1,2,2v12.284a2,2,0,0,1-2,2H237.174v20.88h22.118a2,2,0,0,1,2,2v12.284a2,2,0,0,1-2,2H237.174v18.385h22.118Zm-36.7-67.027a5,5,0,0,0-5-5H132.255a5,5,0,0,0-5,5v79.709a5,5,0,0,0,5,5h85.333a5,5,0,0,0,5-5V136.034Zm-21.157,68.552H146a5,5,0,0,1-5-5v-49.36a5,5,0,0,1,5-5h55.429a5,5,0,0,1,5,5v49.36A5,5,0,0,1,201.431,204.586Z"/>
        <path id="Forma_18" data-name="Forma 18" class="cls-6" d="M86.863,139.581c0.014-1.609-.024-1.983,0-3.131,0.507-6.733,7.738-5.052,9.83-5.22,0.858,0,14.875,0,14.875,0V120.617c1.3-8.541,8.961-8,8.961-8l9.656-.087s-0.074-18.489,0-19.225a5.111,5.111,0,0,1,5.046-5.828h6.089c5.446,0,5.22,6,5.22,6l-11.483-.087,0.174,23.662-13.571.261s-5.592-.407-5.916,5.22c-0.081,1.133-.087,12.44-0.087,12.44s-18.331.348-19.921,0.348C91.528,135.206,90.416,135.633,86.863,139.581Z"/>
        <path id="Forma_18_copiar_3" data-name="Forma 18 copiar 3" class="cls-6" d="M115.484,147.585c-0.081,1.133.174,24.271,0.174,24.271s-18.331.348-19.921,0.348c-4.209-.112-5.321.314-8.873,4.262,0.014-1.609-.024-1.983,0-3.131,0.507-6.733,7.738-5.051,9.83-5.22,0.858,0,14.875,0,14.875,0v-20.53C112.882,147.629,112.7,147.516,115.484,147.585Z"/>
        <path id="Forma_18_copiar_4" data-name="Forma 18 copiar 4" class="cls-6" d="M115.571,184.644c-0.081,1.133.087,22.27,0.087,22.27s-18.331.348-19.921,0.348c-4.209-.112-5.321.314-8.873,4.263,0.014-1.61-.024-1.983,0-3.132,0.507-6.733,7.738-5.051,9.83-5.22,0.858,0,14.875,0,14.875,0s0.087-17.4.087-18.529C112.969,184.688,112.791,184.575,115.571,184.644Z"/>
        <path id="Forma_18_copiar_9" data-name="Forma 18 copiar 9" class="cls-6" d="M115.745,236.666c0.1,1.044-.255-16.178-0.174-17.312-2.78-.069-2.6.044-3.915,0,0,1.134-.111,8.932-0.087,9.83S111.739,234.7,115.745,236.666Z"/>
        <path id="Forma_18_copiar_10" data-name="Forma 18 copiar 10" class="cls-6" d="M134.275,260.154c0.1,1.044-.255-21.137-0.174-22.27-2.78-.069-2.6.044-3.915,0,0,1.133-.082,13.977-0.087,14.876C130.091,254.267,129.235,259.133,134.275,260.154Z"/>
        <path id="Forma_18_copiar_11" data-name="Forma 18 copiar 11" class="cls-6" d="M171.682,260.154c0.1,1.044-.255-21.137-0.174-22.27-2.78-.069-2.6.044-3.915,0,0,1.133-.082,13.977-0.087,14.876C167.5,254.267,166.642,259.133,171.682,260.154Z"/>
        <path id="Forma_18_copiar_12" data-name="Forma 18 copiar 12" class="cls-6" d="M206.305,260.154c0.1,1.044-.255-21.137-0.174-22.27-2.78-.069-2.6.044-3.914,0,0,1.133-.083,13.977-0.087,14.876C202.122,254.267,201.265,259.133,206.305,260.154Z"/>
        <path id="Forma_18_copiar" data-name="Forma 18 copiar" class="cls-6" d="M146.28,112.613l20.965-.087s-0.073-18.489,0-19.225a5.111,5.111,0,0,1,5.046-5.828h6.089c5.447,0,5.22,6,5.22,6l-11.483-.087,0.174,23.662-25.924.087Z"/>
        <path id="Forma_18_copiar_2" data-name="Forma 18 copiar 2" class="cls-6" d="M183.6,112.613l18.356-.087s-0.074-18.489,0-19.225A5.11,5.11,0,0,1,207,87.472h6.09c5.446,0,5.219,6,5.219,6l-11.483-.087L207,117.05l-23.314.087Z"/>
        <path id="Forma_18_copiar_5" data-name="Forma 18 copiar 5" class="cls-6" d="M236.144,117.137H218.049l-0.087-4.524s11.081-.087,11.57-0.087C234.068,112.882,236.144,117.137,236.144,117.137Z"/>
        <path id="Forma_18_copiar_6" data-name="Forma 18 copiar 6" class="cls-6" d="M261.2,135.841l-24.01-.087L237.1,131.23h19.225A4.973,4.973,0,0,1,261.2,135.841Z"/>
        <path id="Forma_18_copiar_7" data-name="Forma 18 copiar 7" class="cls-6" d="M261.2,173.074l-24.01-.087-0.087-4.524h19.225A4.973,4.973,0,0,1,261.2,173.074Z"/>
        <path id="Forma_18_copiar_8" data-name="Forma 18 copiar 8" class="cls-6" d="M261.2,207.7l-24.01-.087-0.087-4.524h19.225A4.974,4.974,0,0,1,261.2,207.7Z"/>
        <path id="Forma_19" data-name="Forma 19" class="cls-6" d="M146.628,204.652c0-.773-0.609-50.108-0.609-50.108s0.082-3.423,3.393-3.48,56.194,0.476,56.98.261c0.778-7.069-4.543-6.018-6.437-6.089s-44.73,0-52.892,0c-7.095-.648-6.264,5.915-6.264,5.915s0.017,45.533.174,47.5C140.5,206.277,145.3,204.367,146.628,204.652Z"/>
        <path id="Forma_19_copiar" data-name="Forma 19 copiar" class="cls-6" d="M132.293,220.718l86.278,0.028c0.331,0,3.771-.431,3.828-3.741s0-74.126.215-74.912c7.072-.777,6.02,4.542,6.092,6.436s-0.261,63.333-.261,71.493c0.648,7.093-5.918,6.262-5.918,6.262s-82.263.244-84.229,0.087C130.668,226.842,132.579,222.046,132.293,220.718Z"/>
      </g>
    </g>
  </g>
</svg>
