<svg id="Botões" xmlns="http://www.w3.org/2000/svg" xmlns:xlink="http://www.w3.org/1999/xlink" width="350" height="350" viewBox="0 0 350 350">
  <defs>
    <style>
      .cls-1 {
        fill: #1434ab;
      }

      .cls-1, .cls-2, .cls-3, .cls-4, .cls-5, .cls-6 {
        fill-rule: evenodd;
      }

      .cls-2 {
        fill: url(#linear-gradient);
      }

      .cls-3 {
        fill: url(#linear-gradient-2);
      }

      .cls-4 {
        fill: #a8ccf6;
      }

      .cls-5 {
        fill: #c0dbfb;
      }

      .cls-6 {
        fill: #0e2887;
      }
    </style>
    <linearGradient id="linear-gradient" x1="291.643" y1="334.531" x2="54.45" y2="8.063" gradientUnits="userSpaceOnUse">
      <stop offset="0" stop-color="#5997fb"/>
      <stop offset="0.289" stop-color="#4377fb"/>
      <stop offset="1" stop-color="#1434ab"/>
    </linearGradient>
    <linearGradient id="linear-gradient-2" x1="78.759" y1="38.219" x2="274.085" y2="307.062" gradientUnits="userSpaceOnUse">
      <stop offset="0" stop-color="#5997fb"/>
      <stop offset="0.054" stop-color="#5997fb"/>
      <stop offset="0.309" stop-color="#4377fb"/>
      <stop offset="0.494" stop-color="#4377fb"/>
      <stop offset="0.85" stop-color="#1434ab"/>
      <stop offset="1" stop-color="#1434ab"/>
    </linearGradient>
  </defs>
  <g id="Botão_Azul" data-name="Botão Azul">
    <g id="Botão_Azul_Neutro" data-name="Botão Azul Neutro">
      <path id="Elipse_2" data-name="Elipse 2" class="cls-1" d="M174.7,11.877c91.992,0,166.566,73.089,166.566,163.248S266.7,338.372,174.7,338.372,8.136,265.284,8.136,175.125,82.711,11.877,174.7,11.877Z"/>
      <path id="Elipse_2_copiar_3" data-name="Elipse 2 copiar 3" class="cls-2" d="M173.05,8.049c91.992,0,166.566,73.089,166.566,163.248S265.042,334.545,173.05,334.545,6.483,261.456,6.483,171.3,81.058,8.049,173.05,8.049Z"/>
      <path id="Elipse_2_copiar_2" data-name="Elipse 2 copiar 2" class="cls-3" d="M176.423,307.068c75.752,0,137.161-60.186,137.161-134.429S252.175,38.211,176.423,38.211,39.262,98.4,39.262,172.639,100.671,307.068,176.423,307.068Z"/>
      <path id="Forma_1" data-name="Forma 1" class="cls-4" d="M41.659,147.628C51.91,90.776,111.29,18.219,211.735,42.8,115.9,26.3,52.864,98.966,41.659,147.628Z"/>
      <g id="Condicionais">
        <path id="Forma_29" data-name="Forma 29" class="cls-5" d="M98,178h34l25,33v42c-0.817,8.247,10,7,10,7h40s8.04,1.1,7-7c0-3.195,1-43,1-43s0.321-8.54-9-8c-3.917.2-32,0-32,0l-29-35v-9h63v12s-1.664,8.892,10,8c4.532,0.371,40,0,40,0s8.52,1.915,8-7V129s1.8-8.395-7-8H217s-9.89-1.008-9,7c-0.1,2.175,0,12,0,12H146V128s1.073-8.74-11-7c-6.2-.544-37,0-37,0s-12.067-2.29-10,10c0.326,2.067-.089,31.174,0,40S98,178,98,178Z"/>
        <path id="Forma_29_copiar" data-name="Forma 29 copiar" class="cls-1" d="M95,171h34l25,33v42c-0.817,8.247,10,7,10,7h40s8.04,1.1,7-7c0-3.195,1-43,1-43s0.321-8.54-9-8c-3.917.2-32,0-32,0l-29-35v-9h63v12s-1.664,8.892,10,8c4.532,0.371,40,0,40,0s8.52,1.915,8-7V122s1.8-8.395-7-8H214s-9.89-1.008-9,7c-0.1,2.175,0,12,0,12H143V121s1.073-8.74-11-7c-6.2-.544-37,0-37,0s-12.067-2.29-10,10c0.326,2.067-.089,31.174,0,40S95,171,95,171Z"/>
        <path id="Forma_20" data-name="Forma 20" class="cls-6" d="M94,171.421c0.144,0.12-.039-41.564,0-43.671s-0.435-5.759,3.741-5.915c1.834-.195,45.126.343,45.15-0.174,0.067-1.424.364-8.284-9.482-7.308-1.305-.106-36.206-0.088-38.538,0s-10.945-1.611-9.569,10.7c0.044,1.981-.257,29.224-0.087,37.93C84.761,172.747,92.955,171.274,94,171.421Z"/>
        <path id="Forma_20_copiar" data-name="Forma 20 copiar" class="cls-6" d="M214.4,127.75c0.039-2.107-.435-5.759,3.74-5.915,1.834-.195,45.125.343,45.15-0.174,0.067-1.424.364-8.284-9.482-7.308-1.305-.106-36.206-0.088-38.538,0s-10.945-1.611-9.57,10.7c0.044,1.981.087,8.439,0.087,8.439h-62.9v5.654l62.9-.174H214.4S214.357,129.857,214.4,127.75Z"/>
        <path id="Forma_20_copiar_2" data-name="Forma 20 copiar 2" class="cls-6" d="M170.29,195.866c0.825-.335,30.622-0.106,31.927,0,9.693-.786,9.81,5.971,9.743,7.394-0.025.517-42.1-.021-43.932,0.174-7.545-10.189-24.706-33.492-24.706-33.492l-0.435-9.482S169.465,194.628,170.29,195.866Z"/>
        <path id="Forma_21" data-name="Forma 21" class="cls-6" d="M154.37,204.043s-0.122,39.036-.087,39.669c-0.6,10.329,8.265,9.222,8.265,9.222l-0.087-37.929Z"/>
        <path id="Forma_21_copiar" data-name="Forma 21 copiar" class="cls-6" d="M205.783,150.89s-0.122,10.415-.087,11.049C205.1,172.267,214,171,214,171l0.222-19.936Z"/>
      </g>
    </g>
  </g>
</svg>
