<svg xmlns="http://www.w3.org/2000/svg" viewBox="0 0 124.13 89.06"><defs><style>.cls-1{fill:#3c3c4a;}.cls-2{fill:#2f2330;}.cls-3{fill:#4b764d;}.cls-4{fill:#d0b759;}.cls-5{fill:#a37639;}.cls-6{fill:#fdeedf;}.cls-7{fill:#debdb2;}.cls-8{fill:#eacfc1;}.cls-9{fill:#adadad;}</style></defs><title>LED RGB (Luz colorida) compose</title><g id="Base"><g id="_Compound_Path_" data-name="&lt;Compound Path&gt;"><path class="cls-1" d="M128.82,107s-7.68,6.84-7.9,6.7,2.13,11.28,3.28,11.92,3.13-.15,3.13-.15,4.42-2.36,5.36-3.13a2.6,2.6,0,0,0,.89-1.94l-.15-11.91Zm46.46-19.81-11.17.3-.89,7.45s1.24,8.54,2.68,9.23a4.28,4.28,0,0,0,3.13,0s4-2,5.06-2.68a3.55,3.55,0,0,0,1.34-2.23Z" transform="translate(-55.69 -36.79)"/></g><g id="_Compound_Path_2" data-name="&lt;Compound Path&gt;"><path class="cls-2" d="M74.46,77.65c-.18.06-15.19,1-15.19,1V90.76A4.22,4.22,0,0,0,61.36,94c2.91,1.53,61.2,30.83,61.2,30.83s2.31,1.23,2.68.9c-.07-1.73-.15-14.9-.15-14.9S74.64,77.59,74.46,77.65Zm79.38,13.56-2.54,5.65s11.23,5.73,13.26,6.71c1.9,1.16,2.68.74,2.68.74V91.8Z" transform="translate(-55.69 -36.79)"/></g><g id="_Path_" data-name="&lt;Path&gt;"><path class="cls-3" d="M178.79,76.33a5.79,5.79,0,0,0-1.42-.76L111.54,42.51c-2.27-1.61-3.87-.3-3.87-.3s-48.26,24.37-49,24.72a5.61,5.61,0,0,0-1.92,1.12c-.43.12-.64.89-.69,1.32a.9.9,0,0,0,.12.75l0,.18,0-.11a1.32,1.32,0,0,0,.48.31l1.79,1,3.72,5.81s52.74,27,53.16,27S129,106.54,129,106.54s42.64-21.88,42.89-21.89,7.15-5.46,7.59-6.85c0,0,0-.07,0-.1l.12.21A1.63,1.63,0,0,0,178.79,76.33Z" transform="translate(-55.69 -36.79)"/></g><g id="_Path_2" data-name="&lt;Path&gt;"><path class="cls-4" d="M179.6,77.36l-.08,0v-.08h0l-.05-.07,0,0h0v0l-.19.24v0l-1,.53s-48.56,24.77-50.19,25.47a5.34,5.34,0,0,1-3.12.74L123,107.74s-.79,3.16.45,3.72a4.93,4.93,0,0,0,1.26.33l.23.26s.42.39,2.07-.14h.16S174.41,88.35,177.07,87s2.18-2,2.53-2.83C180.1,83.13,179.6,77.36,179.6,77.36Z" transform="translate(-55.69 -36.79)"/></g><g id="_Path_3" data-name="&lt;Path&gt;"><path class="cls-5" d="M125.09,104.31s-.9.18-3.42-1.19c-1.63-.8-55.48-27.8-63-31.58L56,69.91l-.15,1s-.16,3.57-.14,4.92C55.58,78,57.78,79,57.78,79s63.3,31.91,64.48,32.47a7.39,7.39,0,0,0,2.83.74S125.12,104.54,125.09,104.31Z" transform="translate(-55.69 -36.79)"/></g></g><g id="Imagem_82" data-name="Imagem 82"><g id="Imagem_82-2" data-name="Imagem 82"><g id="Forma_255" data-name="Forma 255"><g id="_Group_" data-name="&lt;Group&gt;"><g id="_Compound_Path_3" data-name="&lt;Compound Path&gt;"><path class="cls-6" d="M113.51,85.6l-3.58-.84-1,.57,0-.15L103,88.69c-2.34.84-1,2-1,2a31.78,31.78,0,0,0,4.21,2.53c3,1.57,4.42.42,4.42.42l7.59-3.79Zm-25.09-12-1,.57,0-.15-5.92,3.51c-2.34.84-1,2-1,2A33.26,33.26,0,0,0,84.63,82c3,1.57,4.42.42,4.42.42l7.58-3.79L92,74.4Z" transform="translate(-55.69 -36.79)"/></g></g></g><g id="Forma_257" data-name="Forma 257"><g id="_Group_2" data-name="&lt;Group&gt;"><g id="_Path_4" data-name="&lt;Path&gt;"><path class="cls-7" d="M95.63,49.18s-.47.37-.43,3.38,0,8.08,0,8.09a.66.66,0,0,1,.44-.31C95.58,58.56,95.63,49.18,95.63,49.18Z" transform="translate(-55.69 -36.79)"/></g></g></g><g id="Forma_246" data-name="Forma 246"><g id="_Group_3" data-name="&lt;Group&gt;"><g id="_Compound_Path_4" data-name="&lt;Compound Path&gt;"><path class="cls-6" d="M154.17,52.53c-2-1.16-28.86-14.75-28.86-14.75s-4.27-2.48-9.9.43c-3.37,1.61-18.54,9.9-18.54,9.9a2.18,2.18,0,0,0-1.26,1c-.11,1.29,0,10.53,0,10.53a.81.81,0,0,0,.35.91c-.06,2.69.1,7-.14,7.73-.34,1.07,4.21,8.21,4.21,8.21l15,1.69s24.73-2,24.43-2.11S154.17,62,154.17,62l.6-5.73C155.56,55.57,156.58,54.1,154.17,52.53ZM88,61.16l7.16,3.59V52.53s-4.89,2.6-7,3.58C84.13,58.24,88,61.16,88,61.16Z" transform="translate(-55.69 -36.79)"/></g></g></g><g id="Forma_249" data-name="Forma 249"><g id="_Group_4" data-name="&lt;Group&gt;"><g id="_Compound_Path_5" data-name="&lt;Compound Path&gt;"><path class="cls-8" d="M155.64,73.38V54.6c-.15,1.53-2.32,2.35-2.32,2.35S130.68,68.63,127.84,70a13,13,0,0,1-7,2.15l-.41,2.91L117.3,87.28s.28,3.48,3.39,3.57a10.9,10.9,0,0,0,5-.83s24.13-12.51,27.17-13.9S155.64,73.38,155.64,73.38Z" transform="translate(-55.69 -36.79)"/></g></g></g><g id="Forma_248" data-name="Forma 248"><g id="_Group_5" data-name="&lt;Group&gt;"><g id="_Path_5" data-name="&lt;Path&gt;"><path class="cls-7" d="M121.14,72.17a18.21,18.21,0,0,1-5.73-2L96,60.32s-1-.44-1,1.27,0,2.31,0,2.31l-7-3.37s-1.56-1.17-1.69-1.89c0,2.11,0,13.48,0,13.48s-.5,2.16,2.11,3.37C90.8,76.75,117.3,90,117.3,90s2.42,1.25,3.8.84C121.22,89,121.14,72.17,121.14,72.17Z" transform="translate(-55.69 -36.79)"/></g></g></g><g id="Elipse_19" data-name="Elipse 19"><g id="_Group_6" data-name="&lt;Group&gt;"><g id="_Path_6" data-name="&lt;Path&gt;"><path class="cls-8" d="M121.19,43.21c-11.77,0-21.27,5-21.21,11.21s9.65,11.13,21.42,11.22,21.26-5,21.21-11.22S133,43.21,121.19,43.21Z" transform="translate(-55.69 -36.79)"/></g></g></g><g id="Elipse_21" data-name="Elipse 21"><g id="_Group_7" data-name="&lt;Group&gt;"><g id="_Path_7" data-name="&lt;Path&gt;"><path class="cls-7" d="M130.1,64.65l-.09,0-4-1.21-19.23-8.89-.22-.19-.2.14-5-4.06.78.26h0l-.17-.15c2.28-.91,8.54-3.34,15.73-5.62-6.8.46-13.08,2.25-16,5.38l-.18-.17a10.73,10.73,0,0,0-.63,1.09l0,.08a5.49,5.49,0,0,0-.93,3A6.59,6.59,0,0,0,101,57.85c2.74,4.69,11,8.17,20.68,7.91a41.52,41.52,0,0,0,8.41-1.09Z" transform="translate(-55.69 -36.79)"/></g></g></g><g id="Forma_256" data-name="Forma 256"><g id="_Group_8" data-name="&lt;Group&gt;"><g id="_Path_8" data-name="&lt;Path&gt;"><path class="cls-8" d="M116.93,44.24c-.19-.11-10.76,2.65-10.76,2.65l-4.68,3.28s-.55.47.78.78a21.3,21.3,0,0,0,4.21.15s7.83-3.13,8-3.12,5-2.49,5-2.49S117.12,44.35,116.93,44.24Z" transform="translate(-55.69 -36.79)"/></g></g></g><g id="Elipse_18" data-name="Elipse 18"><g id="_Group_9" data-name="&lt;Group&gt;"><g id="_Path_9" data-name="&lt;Path&gt;"><ellipse class="cls-9" cx="65.75" cy="19.64" rx="15.59" ry="8.11"/></g></g></g><g id="Forma_251" data-name="Forma 251"><g id="_Group_10" data-name="&lt;Group&gt;"><g id="_Compound_Path_6" data-name="&lt;Compound Path&gt;"><path class="cls-7" d="M109.72,75.07c-2.31.25-2.1,3.16-2.1,3.16v9L115,90.79l.84-1.61,1.26-10.53Zm-24.11-8,.1,9,7.16,3.58,1-1.64,1.26-10.53-7.18-3.27C85.6,64.48,85.61,67.11,85.61,67.11Z" transform="translate(-55.69 -36.79)"/></g></g></g><g id="Forma_253" data-name="Forma 253"><g id="_Group_11" data-name="&lt;Group&gt;"><g id="_Compound_Path_7" data-name="&lt;Compound Path&gt;"><path class="cls-6" d="M109.72,75.07A1.94,1.94,0,0,0,108,76.33l7.37,3.58,1.26-.42.1-.83S111.12,75.7,109.72,75.07ZM86,65.48,93.31,69l1.26-.42.14-1s-5.49-2.82-6.89-3.46A2.27,2.27,0,0,0,86,65.48Z" transform="translate(-55.69 -36.79)"/></g></g></g><g id="Forma_252" data-name="Forma 252"><g id="_Group_12" data-name="&lt;Group&gt;"><g id="_Compound_Path_8" data-name="&lt;Compound Path&gt;"><path class="cls-8" d="M116.83,78.72c-2,0-2,3.09-2,3.09l.21,9,2.1-.83S116.82,80.53,116.83,78.72ZM92.64,70.66l.21,9,2.1-.84s-.25-9.49-.24-11.3C92.72,67.51,92.64,70.66,92.64,70.66Z" transform="translate(-55.69 -36.79)"/></g></g></g></g></g></svg>