<svg id="Agrupar_2" data-name="Agrupar 2" xmlns="http://www.w3.org/2000/svg" width="500.16" height="500.16" viewBox="0 0 3200 3200">
  <defs>
    <style>
      .cls-1 {
        fill: #393949;
      }

      .cls-1, .cls-10, .cls-2, .cls-3, .cls-4, .cls-5, .cls-6, .cls-7, .cls-8, .cls-9 {
        fill-rule: evenodd;
      }

      .cls-2 {
        fill: #2f1e2d;
      }

      .cls-3 {
        fill: #287749;
      }

      .cls-4 {
        fill: #dab851;
      }

      .cls-5 {
        fill: #b37731;
      }

      .cls-6 {
        fill: #e1b3aa;
      }

      .cls-7 {
        fill: #ffecd9;
      }

      .cls-8 {
        fill: #afafaf;
      }

      .cls-9 {
        fill: #dedede;
      }

      .cls-10 {
        fill: #fff;
      }
    </style>
  </defs>
  <g id="Base">
    <path id="_Compound_Path_" data-name="&lt;Compound Path&gt;" class="cls-1" d="M1837.13,2463.14s-164.25,146.33-168.86,143.37,45.44,241.3,70.09,254.89,66.91-3.18,66.91-3.18,94.69-50.44,114.7-66.91,19.12-41.42,19.12-41.42L1935.9,2495Zm994.07-423.75-238.96,6.37-19.12,159.3s26.53,182.68,57.35,197.54,66.91,0,66.91,0,84.91-42.97,108.33-57.35,28.67-47.79,28.67-47.79Z"/>
    <path id="_Compound_Path_2" data-name="&lt;Compound Path&gt;" class="cls-2" d="M674.2,1835.48c-3.826,1.3-324.983,22.3-324.983,22.3v258.07s1.353,44.18,44.605,70.1c62.259,32.62,1309.484,659.52,1309.484,659.52s49.27,26.19,57.36,19.12c-1.47-36.82-3.19-318.61-3.19-318.61S678.029,1834.17,674.2,1835.48Zm1698.2,289.93-54.17,121.07s240.13,122.44,283.57,143.38c40.6,24.98,57.35,15.93,57.35,15.93V2138.15Z"/>
    <path id="_Path_" data-name="&lt;Path&gt;" class="cls-3" d="M2906.22,1807.16c-13.31-10.36-30.42-16.29-30.42-16.29s-1383.05-694.72-1408.26-707.32c-48.58-34.3-82.84-6.37-82.84-6.37s-1032.452,521.4-1048.224,528.9c-27.137,12.05-36.792,18.9-41.088,23.92-9.229,2.57-13.812,19.08-14.945,28.28-1.479,6.95-.082,12.25,2.694,15.94,0.3,1.28.609,2.57,0.914,3.85l0.7-2.17a28.385,28.385,0,0,0,10.306,6.64l38.234,22.31,79.652,124.25S1541.37,2407.73,1550.38,2405.79s289.94,47.79,289.94,47.79,912.3-468.23,917.6-468.36,152.95-116.84,162.49-146.56a20.761,20.761,0,0,0,.17-2.2l2.59,4.47C2924.87,1829.36,2917.88,1812.13,2906.22,1807.16Z"/>
    <path id="_Path_2" data-name="&lt;Path&gt;" class="cls-4" d="M2923.59,1829.1l-1.7.95c-0.01-.25-0.03-0.5-0.04-0.76-0.01-.29-0.02-0.59-0.02-0.88-0.15-.04-0.29-0.07-0.44-0.11-0.37-.48-0.74-0.95-1.11-1.43-0.26.32-.52,0.65-0.78,0.97l-0.25-.06c-0.03.15-.05,0.3-0.07,0.45-1.38,1.71-2.77,3.42-4.15,5.13l0.19,0.4-20.3,11.27S1856.08,2374.9,1821.2,2389.86c-32.05,19.99-66.91,15.93-66.91,15.93l-41.42,73.28s-16.86,67.65,9.56,79.65c7.48,3.4,17.13,5.55,27.09,7.02l4.77,5.72s9,8.15,44.29-3.08c2.07-.05,3.51-0.1,3.51-0.1s1010.5-504.02,1067.34-532.08c54.26-30.18,46.63-42.39,54.16-60.54C2934.25,1952.62,2923.59,1829.1,2923.59,1829.1Z"/>
    <path id="_Path_3" data-name="&lt;Path&gt;" class="cls-5" d="M1757.48,2405.79c-0.12-1.11-19.31,3.77-73.28-25.49-34.79-17.14-1186.895-594.79-1348-675.57l-57.078-34.93-3.185,22.3s-3.572,76.29-3.186,105.14c-2.421,45.39,44.607,66.91,44.607,66.91s1354.3,682.52,1379.579,694.57c32.69,15.71,60.54,15.93,60.54,15.93S1757.99,2410.72,1757.48,2405.79Z"/>
  </g>
  <g id="Lampada">
    <path id="Path_8" data-name="Path 8" class="cls-6" d="M1089.97,1771.57V1526.6c0,188.59,318.6,305.81,512.64,305.81,176.37,0,510.65-108.73,510.65-305.81v261.81c0,115.96-252.08,251.03-511.64,251.03C1356.52,2039.44,1089.97,1896.69,1089.97,1771.57Z"/>
    <path id="Path_9" data-name="Path 9" class="cls-7" d="M1089.97,1519.68c0-173.76,229.07-314.62,511.65-314.62s511.64,140.86,511.64,314.62-229.07,314.62-511.64,314.62S1089.97,1693.44,1089.97,1519.68Z"/>
    <path id="Path_10" data-name="Path 10" class="cls-8" d="M1193.42,729.032c-2.15-249.941,197.14-386.159,396.41-395.548,211.1-9.947,421.85,144.846,421.88,392.344,0.08,583.692,9.9,699.452,1.13,819.562-108.13,256.78-751.03,217.1-819.49,6.96C1182.25,1485.04,1193.42,729.032,1193.42,729.032Z"/>
    <path id="Path_11" data-name="Path 11" class="cls-9" d="M1601.62,391.37c246.6,0,349.65,168.627,349.65,298.62,35.4,156.222-721.92,162.37-700.05,0C1277.93,491.784,1424.58,391.37,1601.62,391.37ZM1818,788c22.76-4.232,66.43-17.974,80-26-0.15,5.545,2.2,899.54,2.2,899.54s-26.48,17.15-79.06,32.47C1819.41,1490.01,1817.85,795.3,1818,788Z"/>
    <path id="Path_12" data-name="Path 12" class="cls-10" d="M1617.34,456.23c16.39-39.2,84.53-48.049,152.21-19.762s109.24,83,92.86,122.2-84.53,48.049-152.21,19.761S1600.96,495.432,1617.34,456.23Z"/>
  </g>
</svg>
