<svg width="761" height="761" viewBox="0 0 761 761" fill="none" xmlns="http://www.w3.org/2000/svg">
<path fill-rule="evenodd" clip-rule="evenodd" d="M381.843 133C582.713 133 737.933 222.975 737.933 386.042C750.379 586.976 586.06 717.457 385.19 717.457C184.32 717.457 19.8604 595.196 24.0794 386.386C24.0794 223.32 180.972 133 381.843 133Z" fill="#222232"/>
<path fill-rule="evenodd" clip-rule="evenodd" d="M381.654 73.4844C582.12 73.4844 737.028 200.89 737.028 358.488C737.028 516.087 585.46 638.347 384.994 638.347C184.527 638.347 24.2759 516.446 24.2759 358.847C24.2759 201.249 181.187 73.4844 381.654 73.4844Z" fill="#39394E"/>
<path fill-rule="evenodd" clip-rule="evenodd" d="M380.484 100.21C548.437 100.21 684.588 209.777 684.679 327.445C697.244 491.845 548.436 589.655 380.484 589.663C212.532 589.672 70.7524 499.929 76.3785 333.075C76.3785 197.917 212.532 100.21 380.484 100.21Z" fill="#F0CFC1"/>
<path fill-rule="evenodd" clip-rule="evenodd" d="M381.5 100C549.12 100 685 200.96 685 325.501C685 450.041 549.116 551 381.5 551C213.882 551 78 450.041 78 325.501C78 200.96 213.882 100 381.5 100Z" fill="#FAEBD8"/>
<path d="M263.65 292.56C270.91 292.56 276.667 293.843 280.92 296.41C285.247 298.977 288.327 303.157 290.16 308.95C292.067 314.67 293.02 322.37 293.02 332.05C293.02 341.73 292.067 349.467 290.16 355.26C288.327 360.98 285.247 365.123 280.92 367.69C276.667 370.257 270.91 371.54 263.65 371.54C256.39 371.54 250.597 370.257 246.27 367.69C242.017 365.123 238.973 360.98 237.14 355.26C235.307 349.467 234.39 341.73 234.39 332.05C234.39 322.37 235.307 314.67 237.14 308.95C238.973 303.157 242.017 298.977 246.27 296.41C250.597 293.843 256.39 292.56 263.65 292.56ZM263.54 305.76C261.12 305.76 259.103 306.163 257.49 306.97C255.877 307.777 254.593 309.133 253.64 311.04C252.687 312.947 251.99 315.623 251.55 319.07C251.183 322.443 251 326.77 251 332.05C251 337.257 251.183 341.583 251.55 345.03C251.99 348.477 252.687 351.153 253.64 353.06C254.593 354.967 255.877 356.323 257.49 357.13C259.103 357.937 261.12 358.34 263.54 358.34C266.033 358.34 268.087 357.937 269.7 357.13C271.387 356.323 272.707 354.967 273.66 353.06C274.687 351.153 275.383 348.477 275.75 345.03C276.19 341.583 276.41 337.257 276.41 332.05C276.41 326.77 276.19 322.443 275.75 319.07C275.383 315.623 274.687 312.947 273.66 311.04C272.707 309.133 271.387 307.777 269.7 306.97C268.087 306.163 266.033 305.76 263.54 305.76ZM333.045 292.56C340.305 292.56 346.061 293.843 350.315 296.41C354.641 298.977 357.721 303.157 359.555 308.95C361.461 314.67 362.415 322.37 362.415 332.05C362.415 341.73 361.461 349.467 359.555 355.26C357.721 360.98 354.641 365.123 350.315 367.69C346.061 370.257 340.305 371.54 333.045 371.54C325.785 371.54 319.991 370.257 315.665 367.69C311.411 365.123 308.368 360.98 306.535 355.26C304.701 349.467 303.785 341.73 303.785 332.05C303.785 322.37 304.701 314.67 306.535 308.95C308.368 303.157 311.411 298.977 315.665 296.41C319.991 293.843 325.785 292.56 333.045 292.56ZM332.935 305.76C330.515 305.76 328.498 306.163 326.885 306.97C325.271 307.777 323.988 309.133 323.035 311.04C322.081 312.947 321.385 315.623 320.945 319.07C320.578 322.443 320.395 326.77 320.395 332.05C320.395 337.257 320.578 341.583 320.945 345.03C321.385 348.477 322.081 351.153 323.035 353.06C323.988 354.967 325.271 356.323 326.885 357.13C328.498 357.937 330.515 358.34 332.935 358.34C335.428 358.34 337.481 357.937 339.095 357.13C340.781 356.323 342.101 354.967 343.055 353.06C344.081 351.153 344.778 348.477 345.145 345.03C345.585 341.583 345.805 337.257 345.805 332.05C345.805 326.77 345.585 322.443 345.145 319.07C344.778 315.623 344.081 312.947 343.055 311.04C342.101 309.133 340.781 307.777 339.095 306.97C337.481 306.163 335.428 305.76 332.935 305.76ZM383.409 320.39C385.536 320.39 387.002 320.83 387.809 321.71C388.689 322.517 389.129 323.983 389.129 326.11V331.39C389.129 333.517 388.689 335.02 387.809 335.9C387.002 336.707 385.536 337.11 383.409 337.11H379.229C377.102 337.11 375.599 336.707 374.719 335.9C373.912 335.02 373.509 333.517 373.509 331.39V326.11C373.509 323.983 373.912 322.517 374.719 321.71C375.599 320.83 377.102 320.39 379.229 320.39H383.409ZM383.409 353.17C385.536 353.17 387.002 353.61 387.809 354.49C388.689 355.297 389.129 356.763 389.129 358.89V364.17C389.129 366.297 388.689 367.8 387.809 368.68C387.002 369.487 385.536 369.89 383.409 369.89H379.229C377.102 369.89 375.599 369.487 374.719 368.68C373.912 367.8 373.509 366.297 373.509 364.17V358.89C373.509 356.763 373.912 355.297 374.719 354.49C375.599 353.61 377.102 353.17 379.229 353.17H383.409ZM430.691 292.56C437.951 292.56 443.708 293.843 447.961 296.41C452.288 298.977 455.368 303.157 457.201 308.95C459.108 314.67 460.061 322.37 460.061 332.05C460.061 341.73 459.108 349.467 457.201 355.26C455.368 360.98 452.288 365.123 447.961 367.69C443.708 370.257 437.951 371.54 430.691 371.54C423.431 371.54 417.638 370.257 413.311 367.69C409.058 365.123 406.014 360.98 404.181 355.26C402.348 349.467 401.431 341.73 401.431 332.05C401.431 322.37 402.348 314.67 404.181 308.95C406.014 303.157 409.058 298.977 413.311 296.41C417.638 293.843 423.431 292.56 430.691 292.56ZM430.581 305.76C428.161 305.76 426.144 306.163 424.531 306.97C422.918 307.777 421.634 309.133 420.681 311.04C419.728 312.947 419.031 315.623 418.591 319.07C418.224 322.443 418.041 326.77 418.041 332.05C418.041 337.257 418.224 341.583 418.591 345.03C419.031 348.477 419.728 351.153 420.681 353.06C421.634 354.967 422.918 356.323 424.531 357.13C426.144 357.937 428.161 358.34 430.581 358.34C433.074 358.34 435.128 357.937 436.741 357.13C438.428 356.323 439.748 354.967 440.701 353.06C441.728 351.153 442.424 348.477 442.791 345.03C443.231 341.583 443.451 337.257 443.451 332.05C443.451 326.77 443.231 322.443 442.791 319.07C442.424 315.623 441.728 312.947 440.701 311.04C439.748 309.133 438.428 307.777 436.741 306.97C435.128 306.163 433.074 305.76 430.581 305.76ZM500.086 292.56C507.346 292.56 513.102 293.843 517.356 296.41C521.682 298.977 524.762 303.157 526.596 308.95C528.502 314.67 529.456 322.37 529.456 332.05C529.456 341.73 528.502 349.467 526.596 355.26C524.762 360.98 521.682 365.123 517.356 367.69C513.102 370.257 507.346 371.54 500.086 371.54C492.826 371.54 487.032 370.257 482.706 367.69C478.452 365.123 475.409 360.98 473.576 355.26C471.742 349.467 470.826 341.73 470.826 332.05C470.826 322.37 471.742 314.67 473.576 308.95C475.409 303.157 478.452 298.977 482.706 296.41C487.032 293.843 492.826 292.56 500.086 292.56ZM499.976 305.76C497.556 305.76 495.539 306.163 493.926 306.97C492.312 307.777 491.029 309.133 490.076 311.04C489.122 312.947 488.426 315.623 487.986 319.07C487.619 322.443 487.436 326.77 487.436 332.05C487.436 337.257 487.619 341.583 487.986 345.03C488.426 348.477 489.122 351.153 490.076 353.06C491.029 354.967 492.312 356.323 493.926 357.13C495.539 357.937 497.556 358.34 499.976 358.34C502.469 358.34 504.522 357.937 506.136 357.13C507.822 356.323 509.142 354.967 510.096 353.06C511.122 351.153 511.819 348.477 512.186 345.03C512.626 341.583 512.846 337.257 512.846 332.05C512.846 326.77 512.626 322.443 512.186 319.07C511.819 315.623 511.122 312.947 510.096 311.04C509.142 309.133 507.822 307.777 506.136 306.97C504.522 306.163 502.469 305.76 499.976 305.76Z" fill="#39394E"/>
<path d="M288.394 155.08V162.343C288.394 169.553 294.261 175.386 301.471 175.343L359.271 175.004C359.633 175.002 359.928 175.295 359.928 175.657C359.928 175.997 359.661 176.281 359.322 176.308C231.975 186.524 142 244.631 142 318.434C142 399.494 233.842 469 378.782 469C523.722 469 620 405.834 620 324.774C620 308.859 614.675 293.838 606.268 279.961C603.412 275.248 597.679 273.275 592.375 274.772L571.854 280.565C563.319 282.974 559.79 293.061 562.845 301.386C565.345 308.199 566.528 315.111 566.528 322.42C566.528 380.8 483.169 427.42 378.782 427.42C274.395 427.42 191.036 380.8 191.036 322.42C191.036 264.04 274.395 217.42 378.782 217.42C398.58 217.42 426.287 213.852 447.493 216.122C452.614 216.671 457.804 214.724 460.815 210.546L465.607 203.897C471.155 196.201 466.809 185.612 457.396 184.431C436.957 181.867 409.973 179.3 396.048 178.046C395.367 177.985 394.863 177.416 394.863 176.732C394.863 176.006 395.449 175.416 396.175 175.412L447.38 175.083C454.527 175.037 460.297 169.23 460.297 162.083V146.064C460.297 138.859 454.438 133.029 447.233 133.064L301.331 133.777C294.176 133.812 288.394 139.622 288.394 146.777V155.08Z" fill="#39394E"/>
<path d="M380.5 541C395.688 541 408 528.688 408 513.5C408 498.312 395.688 486 380.5 486C365.312 486 353 498.312 353 513.5C353 528.688 365.312 541 380.5 541Z" fill="#222232"/>
</svg>
