<svg width="761" height="761" viewBox="0 0 761 761" fill="none" xmlns="http://www.w3.org/2000/svg">
<path fill-rule="evenodd" clip-rule="evenodd" d="M381.843 133C582.713 133 737.933 222.975 737.933 386.042C750.379 586.976 586.06 717.457 385.19 717.457C184.32 717.457 19.8604 595.196 24.0794 386.386C24.0794 223.32 180.972 133 381.843 133Z" fill="#222232"/>
<path fill-rule="evenodd" clip-rule="evenodd" d="M381.654 73.4844C582.12 73.4844 737.028 200.89 737.028 358.488C737.028 516.087 585.46 638.347 384.994 638.347C184.527 638.347 24.2759 516.446 24.2759 358.847C24.2759 201.249 181.187 73.4844 381.654 73.4844Z" fill="#39394E"/>
<path fill-rule="evenodd" clip-rule="evenodd" d="M380.484 100.21C548.437 100.21 684.588 209.777 684.679 327.445C697.244 491.845 548.436 589.655 380.484 589.663C212.532 589.672 70.7524 499.929 76.3785 333.075C76.3785 197.917 212.532 100.21 380.484 100.21Z" fill="#F0CFC1"/>
<path fill-rule="evenodd" clip-rule="evenodd" d="M381.5 100C549.12 100 685 200.96 685 325.501C685 450.041 549.116 551 381.5 551C213.882 551 78 450.041 78 325.501C78 200.96 213.882 100 381.5 100Z" fill="#FAEBD8"/>
<path d="M288.394 155.08V162.343C288.394 169.553 294.261 175.386 301.471 175.343L359.271 175.004C359.633 175.002 359.928 175.295 359.928 175.657C359.928 175.997 359.661 176.281 359.322 176.308C231.975 186.524 142 244.631 142 318.434C142 399.494 233.842 469 378.782 469C523.722 469 620 405.834 620 324.774C620 308.859 614.675 293.838 606.268 279.961C603.412 275.248 597.679 273.275 592.375 274.772L571.854 280.565C563.319 282.974 559.79 293.061 562.845 301.386C565.345 308.199 566.528 315.111 566.528 322.42C566.528 380.8 483.169 427.42 378.782 427.42C274.395 427.42 191.036 380.8 191.036 322.42C191.036 264.04 274.395 217.42 378.782 217.42C398.58 217.42 426.287 213.852 447.493 216.122C452.614 216.671 457.804 214.724 460.815 210.546L465.607 203.897C471.155 196.201 466.809 185.612 457.396 184.431C436.957 181.867 409.973 179.3 396.048 178.046C395.367 177.985 394.863 177.416 394.863 176.732C394.863 176.006 395.449 175.416 396.175 175.412L447.38 175.083C454.527 175.037 460.297 169.23 460.297 162.083V146.064C460.297 138.859 454.438 133.029 447.233 133.064L301.331 133.777C294.176 133.812 288.394 139.622 288.394 146.777V155.08Z" fill="#39394E"/>
<circle cx="380.5" cy="513.5" r="27.5" fill="#222232"/>
</svg>
