<svg width="761" height="761" viewBox="0 0 761 761" fill="none" xmlns="http://www.w3.org/2000/svg">
<path fill-rule="evenodd" clip-rule="evenodd" d="M381.843 133C582.713 133 737.933 222.975 737.933 386.042C750.379 586.976 586.06 717.457 385.19 717.457C184.32 717.457 19.8604 595.196 24.0794 386.386C24.0794 223.32 180.972 133 381.843 133Z" fill="#222232"/>
<path fill-rule="evenodd" clip-rule="evenodd" d="M381.654 73.4844C582.12 73.4844 737.028 200.89 737.028 358.488C737.028 516.087 585.46 638.347 384.994 638.347C184.527 638.347 24.2759 516.446 24.2759 358.847C24.2759 201.249 181.187 73.4844 381.654 73.4844Z" fill="#39394E"/>
<path fill-rule="evenodd" clip-rule="evenodd" d="M380.484 100.21C548.437 100.21 684.588 209.777 684.679 327.445C697.244 491.845 548.436 589.655 380.484 589.663C212.532 589.672 70.7524 499.929 76.3785 333.075C76.3785 197.917 212.532 100.21 380.484 100.21Z" fill="#F0CFC1"/>
<path fill-rule="evenodd" clip-rule="evenodd" d="M381.5 100C549.12 100 685 200.96 685 325.501C685 450.041 549.116 551 381.5 551C213.882 551 78 450.041 78 325.501C78 200.96 213.882 100 381.5 100Z" fill="#FAEBD8"/>
<path d="M240.192 283V188.28H259.136V283H240.192ZM275.567 283V209.912C275.567 205.731 276.207 202.232 277.487 199.416C278.767 196.6 280.474 194.381 282.607 192.76C284.74 191.139 287.087 189.987 289.647 189.304C292.207 188.621 294.724 188.28 297.199 188.28C300.271 188.28 304.068 188.323 308.591 188.408C313.199 188.408 318.063 188.536 323.183 188.792C328.388 189.048 333.38 189.432 338.159 189.944V205.816H302.447C299.802 205.816 297.796 206.541 296.431 207.992C295.151 209.357 294.511 211.192 294.511 213.496V229.624L332.015 230.648V245.624L294.511 246.648V283H275.567ZM263.232 453.64C261.184 453.64 258.837 453.427 256.192 453C253.547 452.659 250.987 451.805 248.512 450.44C246.123 449.075 244.117 447.027 242.496 444.296C240.96 441.48 240.192 437.64 240.192 432.776V379.912C240.192 375.731 240.832 372.232 242.112 369.416C243.392 366.6 245.099 364.381 247.232 362.76C249.365 361.139 251.712 359.987 254.272 359.304C256.832 358.621 259.349 358.28 261.824 358.28C268.224 358.28 273.856 358.365 278.72 358.536C283.669 358.707 288.107 358.92 292.032 359.176C295.957 359.347 299.541 359.603 302.784 359.944V375.816H267.456C264.811 375.816 262.763 376.456 261.312 377.736C259.861 379.016 259.136 380.979 259.136 383.624V397.32L296.64 398.344V413.32L259.136 414.344V427.4C259.136 429.619 259.477 431.368 260.16 432.648C260.928 433.843 261.909 434.696 263.104 435.208C264.384 435.635 265.707 435.848 267.072 435.848H302.784V451.72C299.029 452.147 294.848 452.488 290.24 452.744C285.717 453 281.109 453.213 276.416 453.384C271.808 453.555 267.413 453.64 263.232 453.64ZM338.967 453C334.103 453 329.964 452.275 326.551 450.824C323.223 449.288 320.706 446.899 318.999 443.656C317.378 440.328 316.567 435.976 316.567 430.6V358.28H335.511V427.528C335.511 429.576 335.852 431.24 336.535 432.52C337.303 433.8 338.327 434.696 339.607 435.208C340.887 435.635 342.338 435.848 343.959 435.848H373.911V453H338.967ZM413.611 453.768C411.136 453.768 408.576 453.683 405.931 453.512C403.371 453.427 400.726 453.256 397.995 453C395.35 452.659 392.832 452.317 390.443 451.976C388.054 451.549 385.878 451.08 383.915 450.568V435.592C386.475 435.848 389.376 436.061 392.619 436.232C395.862 436.403 399.232 436.531 402.731 436.616C406.23 436.701 409.558 436.744 412.715 436.744C415.958 436.744 418.731 436.488 421.035 435.976C423.424 435.379 425.259 434.397 426.539 433.032C427.819 431.581 428.459 429.619 428.459 427.144V423.688C428.459 420.872 427.606 418.739 425.899 417.288C424.278 415.752 421.931 414.984 418.859 414.984H410.795C401.75 414.984 394.795 413.021 389.931 409.096C385.152 405.085 382.763 398.301 382.763 388.744V384.136C382.763 374.92 385.408 368.179 390.699 363.912C395.99 359.645 403.542 357.512 413.355 357.512C416.854 357.512 420.31 357.683 423.723 358.024C427.222 358.365 430.55 358.792 433.707 359.304C436.95 359.731 439.723 360.2 442.027 360.712V375.688C438.102 375.432 433.707 375.176 428.843 374.92C424.064 374.664 419.627 374.536 415.531 374.536C412.63 374.536 410.027 374.835 407.723 375.432C405.504 375.944 403.798 376.968 402.603 378.504C401.408 380.04 400.811 382.216 400.811 385.032V387.592C400.811 390.92 401.75 393.309 403.627 394.76C405.504 396.211 408.278 396.936 411.947 396.936H421.291C427.008 396.936 431.702 398.003 435.371 400.136C439.126 402.184 441.899 405.043 443.691 408.712C445.568 412.381 446.507 416.563 446.507 421.256V426.632C446.507 434.056 445.099 439.731 442.283 443.656C439.552 447.581 435.712 450.269 430.763 451.72C425.899 453.085 420.182 453.768 413.611 453.768ZM483.482 453.64C481.434 453.64 479.087 453.427 476.442 453C473.797 452.659 471.237 451.805 468.762 450.44C466.373 449.075 464.367 447.027 462.746 444.296C461.21 441.48 460.442 437.64 460.442 432.776V379.912C460.442 375.731 461.082 372.232 462.362 369.416C463.642 366.6 465.349 364.381 467.482 362.76C469.615 361.139 471.962 359.987 474.522 359.304C477.082 358.621 479.599 358.28 482.074 358.28C488.474 358.28 494.106 358.365 498.97 358.536C503.919 358.707 508.357 358.92 512.282 359.176C516.207 359.347 519.791 359.603 523.034 359.944V375.816H487.706C485.061 375.816 483.013 376.456 481.562 377.736C480.111 379.016 479.386 380.979 479.386 383.624V397.32L516.89 398.344V413.32L479.386 414.344V427.4C479.386 429.619 479.727 431.368 480.41 432.648C481.178 433.843 482.159 434.696 483.354 435.208C484.634 435.635 485.957 435.848 487.322 435.848H523.034V451.72C519.279 452.147 515.098 452.488 510.49 452.744C505.967 453 501.359 453.213 496.666 453.384C492.058 453.555 487.663 453.64 483.482 453.64Z" fill="#39394E"/>
</svg>
