<svg width="761" height="1086" viewBox="0 0 761 1086" fill="none" xmlns="http://www.w3.org/2000/svg">
<path fill-rule="evenodd" clip-rule="evenodd" d="M381.837 190C738 190 738 190 738 531.166C738 978 738 978 385.184 978C32.3689 978 24 978 24 531.631C24 190 25.6737 190 381.837 190Z" fill="#222232"/>
<path fill-rule="evenodd" clip-rule="evenodd" d="M381.837 190C738 190 738 190 738 501.725C738 910 738 910 385.184 910C32.3689 910 24 910 24 502.15C24 190 25.6737 190 381.837 190Z" fill="#39394E"/>
<path fill-rule="evenodd" clip-rule="evenodd" d="M381.244 221.196C698 221.196 698 221.196 698 500.465C698 866.231 698 866.231 384.221 866.231C70.4429 866.231 63 866.231 63 500.845C63 221.196 64.4886 221.196 381.244 221.196Z" fill="#F0CFC1"/>
<path fill-rule="evenodd" clip-rule="evenodd" d="M381.244 221C698 221 698 221 698 476.874C698 812 698 812 384.221 812C70.4429 812 63 812 63 477.223C63 221 64.4886 221 381.244 221Z" fill="#FAEBD8"/>
</svg>
