<svg width="756" height="760" viewBox="0 0 756 760" fill="none" xmlns="http://www.w3.org/2000/svg">
<path fill-rule="evenodd" clip-rule="evenodd" d="M379.672 112.48C579.221 112.48 733.422 202.337 733.422 365.189C745.786 565.859 582.546 696.169 382.996 696.169C183.446 696.169 20.0673 574.068 24.2585 365.533C24.2585 202.681 180.121 112.48 379.672 112.48Z" fill="#222232"/>
<path fill-rule="evenodd" clip-rule="evenodd" d="M379.146 73.3879C578.295 73.3879 732.186 200.626 732.186 358.017C732.186 515.408 581.614 637.509 382.464 637.509C183.315 637.509 24.1164 515.767 24.1164 358.376C24.1164 200.984 179.997 73.3879 379.146 73.3879Z" fill="#39394E"/>
<path fill-rule="evenodd" clip-rule="evenodd" d="M377.984 100.078C544.833 100.078 680.09 209.502 680.18 327.014C692.663 491.199 544.833 588.88 377.984 588.888C211.136 588.897 70.2876 499.272 75.8767 332.638C75.8767 197.657 211.136 100.078 377.984 100.078Z" fill="#F0CFC1"/>
<path fill-rule="evenodd" clip-rule="evenodd" d="M377.984 100.078C544.833 100.078 680.09 200.24 680.09 323.796C680.09 447.351 544.833 547.513 377.984 547.513C211.136 547.513 75.8782 447.351 75.8782 323.796C75.8782 200.24 211.136 100.078 377.984 100.078Z" fill="#FAEBD8"/>
<path d="M367.22 421.15C357.867 421.15 348.053 420.767 337.78 420C327.507 419.233 317.77 418.39 308.57 417.47V390.56H368.6C374.12 390.56 378.413 389.64 381.48 387.8C384.7 385.96 386.923 383.583 388.15 380.67C389.53 377.603 390.22 374.46 390.22 371.24V359.51C390.22 354.143 388.84 349.927 386.08 346.86C383.473 343.64 379.027 342.03 372.74 342.03H359.4C354.34 342.03 350.507 343.103 347.9 345.25C345.447 347.243 343.837 350.387 343.07 354.68H310.87L315.7 249.8H417.82V280.39H344.91L343.07 320.87C345.37 318.417 348.513 316.577 352.5 315.35C356.64 313.97 361.24 313.28 366.3 313.28H384.93C393.823 313.28 401.183 315.043 407.01 318.57C412.837 322.097 417.207 326.927 420.12 333.06C423.033 339.04 424.49 345.787 424.49 353.3V378.37C424.49 388.337 422.267 396.463 417.82 402.75C413.373 409.037 406.933 413.713 398.5 416.78C390.067 419.693 379.64 421.15 367.22 421.15Z" fill="#38384C"/>
</svg>
