<svg id="Forma_atualizada_E" data-name="Forma atualizada E" xmlns="http://www.w3.org/2000/svg" width="1000" height="1000" viewBox="0 0 1000 1000">
  <defs>
    <style>
      .cls-1 {
        fill: #222232;
      }

      .cls-1, .cls-2, .cls-3, .cls-4 {
        fill-rule: evenodd;
      }

      .cls-2 {
        fill: #39394e;
      }

      .cls-3 {
        fill: #f0cfc1;
      }

      .cls-4 {
        fill: #faebd8;
      }
    </style>
  </defs>
  <path id="Elipse_1_copiar_5" data-name="Elipse 1 copiar 5" class="cls-1" d="M502.211,148c263.955,0,467.924,118.233,467.924,332.512,16.354,264.04-199.571,435.5-463.526,435.5S26.544,755.353,32.088,480.965C32.088,266.686,238.255,148,502.211,148Z"/>
  <path id="Elipse_1_copiar_11" data-name="Elipse 1 copiar 11" class="cls-2" d="M501.516,96.563c263.425,0,466.984,167.418,466.984,374.512S769.33,838.827,505.905,838.827,31.9,678.641,31.9,471.547,238.091,96.563,501.516,96.563Z"/>
  <path id="Elipse_1_copiar_10" data-name="Elipse 1 copiar 10" class="cls-3" d="M499.979,131.682c220.7,0,399.611,143.978,399.73,298.6,16.512,216.032-179.031,344.56-399.73,344.571S92.973,656.937,100.366,437.681C100.366,260.075,279.28,131.682,499.979,131.682Z"/>
  <path id="Elipse_1_copiar_7" data-name="Elipse 1 copiar 7" class="cls-4" d="M499.979,131.682c220.7,0,399.611,131.792,399.611,294.365S720.678,720.412,499.979,720.412,100.368,588.62,100.368,426.047,279.28,131.682,499.979,131.682Z"/>
</svg>
