<svg width="200" height="200" viewBox="0 0 200 200" fill="none" xmlns="http://www.w3.org/2000/svg">
<path fill-rule="evenodd" clip-rule="evenodd" d="M100.442 29.6C153.233 29.6 194.027 53.2466 194.027 96.1024C197.298 148.91 154.113 183.202 101.322 183.202C48.5308 183.202 5.3088 151.071 6.4176 96.193C6.4176 53.3372 47.651 29.6 100.442 29.6Z" fill="#222232"/>
<path fill-rule="evenodd" clip-rule="evenodd" d="M100.303 19.3126C152.988 19.3126 193.7 52.7962 193.7 94.215C193.7 135.634 153.866 167.765 101.181 167.765C48.4959 167.765 6.37988 135.728 6.37988 94.3094C6.37988 52.8906 47.6181 19.3126 100.303 19.3126Z" fill="#39394E"/>
<path fill-rule="evenodd" clip-rule="evenodd" d="M99.9959 26.3364C144.136 26.3364 179.918 55.132 179.942 86.0564C183.244 129.263 144.136 154.968 99.9959 154.971C55.8561 154.973 18.5947 131.387 20.0733 87.5362C20.0733 52.015 55.8561 26.3364 99.9959 26.3364Z" fill="#F0CFC1"/>
<path fill-rule="evenodd" clip-rule="evenodd" d="M99.9957 26.3364C144.136 26.3364 179.918 52.6948 179.918 85.2094C179.918 117.724 144.135 144.082 99.9957 144.082C55.8559 144.082 20.0735 117.724 20.0735 85.2094C20.0735 52.6948 55.8559 26.3364 99.9957 26.3364Z" fill="#FAEBD8"/>
</svg>
