<svg width="761" height="761" viewBox="0 0 761 761" fill="none" xmlns="http://www.w3.org/2000/svg">
<path fill-rule="evenodd" clip-rule="evenodd" d="M381.843 133C582.713 133 737.933 222.975 737.933 386.042C750.379 586.976 586.06 717.457 385.19 717.457C184.32 717.457 19.8604 595.196 24.0794 386.386C24.0794 223.32 180.972 133 381.843 133Z" fill="#222232"/>
<path fill-rule="evenodd" clip-rule="evenodd" d="M381.654 73.4844C582.12 73.4844 737.028 200.89 737.028 358.488C737.028 516.087 585.46 638.347 384.994 638.347C184.527 638.347 24.2759 516.446 24.2759 358.847C24.2759 201.249 181.187 73.4844 381.654 73.4844Z" fill="#39394E"/>
<path fill-rule="evenodd" clip-rule="evenodd" d="M380.484 100.21C548.437 100.21 684.588 209.777 684.679 327.445C697.244 491.845 548.436 589.655 380.484 589.663C212.532 589.672 70.7524 499.929 76.3785 333.075C76.3785 197.917 212.532 100.21 380.484 100.21Z" fill="#F0CFC1"/>
<path fill-rule="evenodd" clip-rule="evenodd" d="M381.5 100C549.12 100 685 200.96 685 325.501C685 450.041 549.116 551 381.5 551C213.882 551 78 450.041 78 325.501C78 200.96 213.882 100 381.5 100Z" fill="#FAEBD8"/>
<path d="M394.65 532.822C607.576 508.938 638.4 393.582 632.223 289.947C632.037 286.817 633.914 283.929 636.864 282.866L649.339 278.371C654.253 276.601 655.567 270.268 651.764 266.688L608.814 226.263C605.377 223.027 599.787 224.053 597.722 228.299L573.029 279.064C570.608 284.041 574.647 289.726 580.143 289.078L594.352 287.402C598.275 286.939 601.815 289.81 602.019 293.756C606 370.677 569.458 485.427 395.893 496.581C392.444 496.803 389.537 499.466 389.183 502.903L386.88 525.208C386.425 529.612 390.251 533.315 394.65 532.822Z" fill="#39394E" stroke="black"/>
<path d="M377.572 122.538C163.326 125.109 121.172 236.823 117.002 340.558C116.876 343.691 114.72 346.378 111.679 347.142L98.8189 350.373C93.7538 351.645 91.8156 357.816 95.2433 361.756L133.955 406.256C137.054 409.818 142.718 409.354 145.195 405.335L174.819 357.28C177.724 352.569 174.27 346.51 168.737 346.607L154.432 346.86C150.482 346.93 147.246 343.721 147.435 339.775C151.131 262.839 198.914 152.297 372.728 158.475C376.182 158.598 379.339 156.238 380.034 152.853L384.546 130.888C385.436 126.551 381.999 122.485 377.572 122.538Z" fill="#39394E" stroke="black"/>
<path d="M380.5 427.25C370 427.25 359.167 426.917 348 426.25C336.833 425.583 326.5 424.75 317 423.75V399.5H381.75C388.25 399.5 393.583 398.417 397.75 396.25C401.917 394.083 405 391.167 407 387.5C409 383.667 410 379.583 410 375.25V359.75C410 352.917 408.167 347.583 404.5 343.75C400.833 339.75 394.917 337.75 386.75 337.75H370.5C364.333 337.75 359.5 339.083 356 341.75C352.667 344.417 350.5 348.5 349.5 354H320.25L325.5 241.5H434.25V269.25H352.25L349.75 321.5C352.083 318.5 355.583 316.083 360.25 314.25C364.917 312.417 370.417 311.5 376.75 311.5H397.5C407.167 311.5 415.167 313.417 421.5 317.25C428 320.917 432.833 326 436 332.5C439.333 338.833 441 346.083 441 354.25V381.5C441 392 438.583 400.667 433.75 407.5C429.083 414.167 422.25 419.167 413.25 422.5C404.25 425.667 393.333 427.25 380.5 427.25Z" fill="#222232"/>
</svg>
