<svg width="756" height="760" viewBox="0 0 756 760" fill="none" xmlns="http://www.w3.org/2000/svg">
<path fill-rule="evenodd" clip-rule="evenodd" d="M379.672 112.48C579.221 112.48 733.422 202.337 733.422 365.189C745.786 565.859 582.546 696.169 382.996 696.169C183.446 696.169 20.0672 574.068 24.2584 365.533C24.2584 202.681 180.121 112.48 379.672 112.48Z" fill="#222232"/>
<path fill-rule="evenodd" clip-rule="evenodd" d="M379.146 73.3879C578.295 73.3879 732.186 200.626 732.186 358.017C732.186 515.408 581.614 637.509 382.464 637.509C183.315 637.509 24.1165 515.767 24.1165 358.376C24.1165 200.984 179.997 73.3879 379.146 73.3879Z" fill="#39394E"/>
<path fill-rule="evenodd" clip-rule="evenodd" d="M377.984 100.078C544.833 100.078 680.09 209.502 680.18 327.014C692.663 491.199 544.833 588.88 377.984 588.888C211.136 588.897 70.2876 499.272 75.8767 332.638C75.8767 197.657 211.136 100.078 377.984 100.078Z" fill="#F0CFC1"/>
<path fill-rule="evenodd" clip-rule="evenodd" d="M378.106 100C544.955 100 680.212 200.162 680.212 323.718C680.212 447.273 544.955 547.435 378.106 547.435C211.258 547.435 76 447.273 76 323.718C76 200.162 211.258 100 378.106 100Z" fill="#FAEBD8"/>
<path d="M376.65 357.35C367.297 357.35 357.483 356.967 347.21 356.2C336.937 355.433 327.2 354.59 318 353.67V326.76H378.03C383.55 326.76 387.843 325.84 390.91 324C394.13 322.16 396.353 319.783 397.58 316.87C398.96 313.803 399.65 310.66 399.65 307.44V295.71C399.65 290.343 398.27 286.127 395.51 283.06C392.903 279.84 388.457 278.23 382.17 278.23H368.83C363.77 278.23 359.937 279.303 357.33 281.45C354.877 283.443 353.267 286.587 352.5 290.88H320.3L325.13 186H427.25V216.59H354.34L352.5 257.07C354.8 254.617 357.943 252.777 361.93 251.55C366.07 250.17 370.67 249.48 375.73 249.48H394.36C403.253 249.48 410.613 251.243 416.44 254.77C422.267 258.297 426.637 263.127 429.55 269.26C432.463 275.24 433.92 281.987 433.92 289.5V314.57C433.92 324.537 431.697 332.663 427.25 338.95C422.803 345.237 416.363 349.913 407.93 352.98C399.497 355.893 389.07 357.35 376.65 357.35Z" fill="#38384C"/>
<path d="M414.5 509V461.857C272.5 461.857 237 413.536 237 344C255.46 390.671 308 414.714 379 414.714H414.5V367.571L521 442.057L414.5 509Z" fill="#39394E"/>
</svg>
