<svg width="756" height="760" viewBox="0 0 756 760" fill="none" xmlns="http://www.w3.org/2000/svg">
<path fill-rule="evenodd" clip-rule="evenodd" d="M379.672 112.48C579.221 112.48 733.422 202.337 733.422 365.189C745.786 565.859 582.546 696.169 382.996 696.169C183.446 696.169 20.0673 574.068 24.2585 365.533C24.2585 202.681 180.121 112.48 379.672 112.48Z" fill="#222232"/>
<path fill-rule="evenodd" clip-rule="evenodd" d="M379.146 73.3879C578.295 73.3879 732.186 200.626 732.186 358.017C732.186 515.408 581.614 637.509 382.464 637.509C183.315 637.509 24.1164 515.767 24.1164 358.376C24.1164 200.984 179.997 73.3879 379.146 73.3879Z" fill="#39394E"/>
<path fill-rule="evenodd" clip-rule="evenodd" d="M377.984 100.078C544.833 100.078 680.09 209.502 680.18 327.014C692.663 491.199 544.833 588.88 377.984 588.888C211.136 588.897 70.2876 499.272 75.8767 332.638C75.8767 197.657 211.136 100.078 377.984 100.078Z" fill="#F0CFC1"/>
<path fill-rule="evenodd" clip-rule="evenodd" d="M377.984 100.078C544.833 100.078 680.09 200.24 680.09 323.796C680.09 447.351 544.833 547.513 377.984 547.513C211.136 547.513 75.8782 447.351 75.8782 323.796C75.8782 200.24 211.136 100.078 377.984 100.078Z" fill="#FAEBD8"/>
<path d="M365.5 166L350.37 180.063C345.475 184.613 232 291.328 232 381.912C232 450.161 292.075 506 365.5 506C438.925 506 499 450.161 499 381.912C499 291.742 385.525 184.613 380.63 180.063L365.5 166ZM285 371C291 373.5 287.944 384.248 291 398C296 420.5 315.525 440 340 440C349.5 443 362.5 436.918 362.5 448.5C359 458 345.96 451 333.5 451C294.5 439 284.136 424 280 404.5C275.864 385 272.54 371 285 371Z" fill="#39394E"/>
</svg>
